{"glyphs":{"0":{"ha":1014,"x_min":57,"x_max":957,"o":"m 833 127 q 770 54 833 127 q 506 -19 708 -19 q 180 126 303 -19 q 57 483 57 271 l 57 486 q 182 845 57 699 q 508 992 307 992 q 833 847 710 992 q 957 489 957 701 l 957 486 q 833 127 957 274 m 378 294 q 403 257 378 294 q 508 219 428 219 q 638 293 589 219 q 686 483 686 367 l 686 486 q 635 678 686 603 q 506 753 585 753 q 377 679 426 753 q 328 489 328 606 l 328 486 q 378 294 328 368 z "},"1":{"ha":586,"x_min":11,"x_max":492,"o":"m 226 0 l 226 728 l 63 690 l 11 899 l 296 979 l 492 979 l 492 0 l 226 0 z "},"2":{"ha":867,"x_min":46,"x_max":815,"o":"m 46 0 l 46 203 l 410 481 q 506 574 478 535 q 535 656 535 613 q 505 728 535 701 q 426 754 475 754 q 335 726 379 754 q 233 629 292 697 l 51 781 q 224 939 135 889 q 447 989 313 989 q 706 903 607 989 q 806 679 806 817 l 806 676 q 753 494 806 567 q 581 336 700 422 l 414 219 l 815 219 l 815 0 l 46 0 z "},"3":{"ha":863,"x_min":25,"x_max":814,"o":"m 439 -19 q 25 153 181 -19 l 194 322 q 426 211 303 211 q 517 238 483 211 q 551 310 551 265 l 551 313 q 510 386 551 360 q 393 413 468 413 l 279 413 l 240 553 l 464 754 l 92 754 l 92 972 l 794 972 l 794 779 l 563 581 q 814 307 814 525 l 814 304 q 709 69 814 158 q 439 -19 604 -19 z "},"4":{"ha":957,"x_min":18,"x_max":918,"o":"m 533 0 l 533 189 l 63 189 l 18 379 l 522 979 l 794 979 l 794 390 l 918 390 l 918 189 l 794 189 l 794 0 l 533 0 m 301 389 l 533 389 l 533 668 l 301 389 z "},"5":{"ha":875,"x_min":26,"x_max":822,"o":"m 421 -19 q 26 135 192 -19 l 181 315 q 417 210 306 210 q 522 240 483 210 q 560 324 560 271 l 560 326 q 520 408 560 378 q 417 439 481 439 q 261 390 342 439 l 101 479 l 129 972 l 779 972 l 779 750 l 342 750 l 333 603 q 489 638 407 638 q 726 558 631 638 q 822 329 822 479 l 822 326 q 712 74 822 167 q 421 -19 601 -19 z "},"6":{"ha":919,"x_min":57,"x_max":860,"o":"m 474 -19 q 176 92 288 -19 q 57 456 57 211 l 57 458 q 173 844 57 696 q 508 992 289 992 q 832 885 689 992 l 706 694 q 513 768 607 768 q 385 713 431 768 q 329 561 339 657 q 539 636 428 636 q 767 555 674 636 q 860 333 860 474 l 860 331 q 749 76 860 171 q 474 -19 638 -19 m 363 226 q 381 208 363 226 q 463 190 400 190 q 561 226 525 190 q 597 315 597 261 l 597 318 q 560 407 597 371 q 460 443 522 443 q 361 408 397 443 q 325 319 325 374 l 325 317 q 363 226 325 263 z "},"7":{"ha":853,"x_min":64,"x_max":813,"o":"m 86 0 l 514 746 l 64 746 l 64 972 l 813 972 l 813 769 l 383 0 l 86 0 z "},"8":{"ha":875,"x_min":38,"x_max":838,"o":"m 726 62 q 670 23 726 62 q 438 -17 614 -17 q 149 63 261 -17 q 38 268 38 142 l 38 271 q 204 504 38 433 q 71 715 71 578 l 71 718 q 173 913 71 836 q 438 989 275 989 q 702 913 600 989 q 804 718 804 836 l 804 715 q 671 504 804 578 q 794 412 751 467 q 838 272 838 357 l 838 269 q 726 62 838 140 m 351 608 q 367 593 351 608 q 438 578 383 578 q 524 608 492 578 q 557 683 557 638 l 557 686 q 524 758 557 728 q 438 789 490 789 q 351 759 383 789 q 318 688 318 729 l 318 685 q 351 608 318 639 m 335 217 q 353 201 335 217 q 438 185 372 185 q 540 217 503 185 q 578 294 578 249 l 578 297 q 538 374 578 344 q 438 403 499 403 q 337 374 376 403 q 297 297 297 344 l 297 294 q 335 217 297 249 z "},"9":{"ha":919,"x_min":60,"x_max":863,"o":"m 413 -19 q 74 96 221 -19 l 200 282 q 408 204 299 204 q 536 258 490 204 q 592 407 582 311 q 386 328 508 328 q 151 411 242 328 q 60 635 60 494 l 60 638 q 169 894 60 797 q 447 992 278 992 q 619 964 550 992 q 746 878 688 936 q 863 518 863 764 l 863 515 q 744 126 863 271 q 413 -19 626 -19 m 359 557 q 378 539 359 557 q 460 521 397 521 q 559 557 522 521 q 596 647 596 593 l 596 650 q 558 744 596 707 q 457 782 519 782 q 358 745 394 782 q 321 651 321 708 l 321 649 q 359 557 321 593 z "}," ":{"ha":385,"x_min":0,"x_max":0,"o":""},"!":{"ha":450,"x_min":75,"x_max":375,"o":"m 156 317 l 75 854 l 75 972 l 375 972 l 375 854 l 294 317 l 156 317 m 88 0 l 88 236 l 363 236 l 363 0 l 88 0 z "},"\"":{"ha":746,"x_min":47,"x_max":718,"o":"m 403 474 l 435 972 l 718 972 l 718 965 l 542 474 l 403 474 m 47 474 l 78 972 l 361 972 l 361 965 l 185 474 l 47 474 z "},"#":{"ha":981,"x_min":40,"x_max":939,"o":"m 117 0 l 149 188 l 40 188 l 40 411 l 188 411 l 214 567 l 86 567 l 86 790 l 253 790 l 283 972 l 485 972 l 453 790 l 629 790 l 660 972 l 861 972 l 831 790 l 939 790 l 939 567 l 792 567 l 765 411 l 893 411 l 893 188 l 728 188 l 694 0 l 493 0 l 526 188 l 350 188 l 318 0 l 117 0 m 382 406 l 568 406 l 596 572 l 411 572 l 382 406 z "},"$":{"ha":925,"x_min":35,"x_max":882,"o":"m 410 -136 l 410 3 q 35 140 196 25 l 160 325 q 418 211 293 232 l 418 378 q 162 485 243 418 q 81 678 81 553 l 81 681 q 168 884 81 806 q 413 974 256 963 l 413 1053 l 557 1053 l 557 969 q 850 861 717 951 l 736 675 q 550 758 654 733 l 550 597 q 802 488 722 557 q 882 294 882 419 l 882 292 q 794 90 882 167 q 554 0 706 14 l 554 -136 l 410 -136 m 419 621 l 419 771 q 325 701 325 763 l 325 699 q 345 653 325 671 q 419 621 365 636 m 549 203 q 642 274 642 213 l 642 276 q 622 323 642 306 q 549 356 601 340 l 549 203 z "},"%":{"ha":1249,"x_min":49,"x_max":1200,"o":"m 479 538 q 444 500 479 538 q 299 463 408 463 q 119 538 189 463 q 49 722 49 613 l 49 725 q 118 910 49 835 q 300 986 188 986 q 481 911 411 986 q 550 726 550 836 l 550 724 q 479 538 550 614 m 1129 63 q 1094 24 1129 63 q 949 -14 1058 -14 q 769 62 839 -14 q 699 246 699 138 l 699 249 q 768 434 699 358 q 950 510 838 510 q 1131 435 1061 510 q 1200 250 1200 360 l 1200 247 q 1129 63 1200 139 m 242 646 q 253 631 242 646 q 300 615 265 615 q 358 646 335 615 q 381 722 381 676 l 381 725 q 357 802 381 771 q 299 833 333 833 q 240 803 263 833 q 218 726 218 772 l 218 724 q 242 646 218 676 m 892 170 q 903 155 892 170 q 950 139 915 139 q 1008 169 985 139 q 1031 246 1031 200 l 1031 249 q 1008 326 1031 296 q 949 357 985 357 q 890 327 911 357 q 868 250 868 297 l 868 247 q 892 170 868 201 m 565 524 l 906 972 l 1093 972 l 675 438 l 343 0 l 156 0 l 565 524 z "},"&":{"ha":969,"x_min":29,"x_max":947,"o":"m 765 -19 l 665 82 q 376 -17 536 -17 q 126 59 224 -17 q 29 264 29 135 l 29 267 q 226 539 29 450 q 163 725 163 631 l 163 728 q 246 915 163 838 q 468 992 329 992 q 678 921 599 992 q 757 742 757 850 l 757 739 q 567 486 757 574 l 675 381 q 767 535 718 443 l 944 446 q 817 240 876 322 l 947 111 l 765 -19 m 440 607 q 543 726 543 653 l 543 729 q 522 785 543 764 q 468 807 501 807 q 412 783 433 807 q 390 721 390 760 l 390 718 q 440 607 390 669 m 413 182 q 528 224 465 182 l 368 386 q 299 281 299 344 l 299 278 q 331 208 299 235 q 413 182 363 182 z "},"'":{"ha":394,"x_min":47,"x_max":367,"o":"m 47 474 l 78 972 l 367 972 l 367 965 l 190 474 l 47 474 z "},"(":{"ha":618,"x_min":61,"x_max":576,"o":"m 467 -196 q 163 52 264 -90 q 61 399 61 194 q 163 745 61 603 q 467 993 264 888 l 576 829 q 380 635 440 736 q 319 399 319 535 q 380 162 319 263 q 576 -32 440 61 l 467 -196 z "},")":{"ha":618,"x_min":42,"x_max":557,"o":"m 151 -196 l 42 -32 q 238 162 178 61 q 299 399 299 263 q 238 635 299 535 q 42 829 178 736 l 151 993 q 456 745 354 888 q 557 399 557 603 q 456 52 557 194 q 151 -196 354 -90 z "},"*":{"ha":590,"x_min":39,"x_max":551,"o":"m 222 471 l 257 654 l 114 532 l 39 660 l 215 722 l 39 785 l 114 914 l 257 792 l 222 975 l 368 975 l 333 792 l 476 914 l 551 785 l 375 722 l 551 660 l 476 532 l 333 654 l 368 471 l 222 471 z "},"+":{"ha":889,"x_min":79,"x_max":810,"o":"m 324 131 l 324 372 l 79 372 l 79 606 l 324 606 l 324 847 l 565 847 l 565 606 l 810 606 l 810 372 l 565 372 l 565 131 l 324 131 z "},",":{"ha":394,"x_min":28,"x_max":335,"o":"m 49 -229 l 28 -128 q 167 3 171 -111 l 60 3 l 60 274 l 335 274 l 335 53 q 261 -160 335 -94 q 49 -229 188 -225 z "},"-":{"ha":567,"x_min":56,"x_max":511,"o":"m 56 318 l 56 550 l 511 550 l 511 318 l 56 318 z "},".":{"ha":394,"x_min":60,"x_max":335,"o":"m 60 0 l 60 271 l 335 271 l 335 0 l 60 0 z "},"/":{"ha":743,"x_min":-53,"x_max":776,"o":"m -53 -178 l 563 1108 l 776 1108 l 161 -178 l -53 -178 z "},":":{"ha":408,"x_min":67,"x_max":342,"o":"m 67 481 l 67 751 l 342 751 l 342 481 l 67 481 m 67 0 l 67 271 l 342 271 l 342 0 l 67 0 z "},";":{"ha":408,"x_min":35,"x_max":342,"o":"m 67 481 l 67 751 l 342 751 l 342 481 l 67 481 m 56 -232 l 35 -131 q 174 0 178 -114 l 67 0 l 67 271 l 342 271 l 342 50 q 268 -162 342 -97 q 56 -232 194 -228 z "},"<":{"ha":889,"x_min":88,"x_max":778,"o":"m 778 92 l 88 367 l 88 611 l 778 886 l 778 642 l 324 489 l 778 338 l 778 92 z "},"=":{"ha":889,"x_min":88,"x_max":801,"o":"m 88 560 l 88 789 l 801 789 l 801 560 l 88 560 m 88 190 l 88 418 l 801 418 l 801 190 l 88 190 z "},">":{"ha":889,"x_min":111,"x_max":801,"o":"m 111 92 l 111 336 l 565 488 l 111 640 l 111 886 l 801 611 l 801 367 l 111 92 z "},"?":{"ha":750,"x_min":14,"x_max":721,"o":"m 265 317 l 231 549 l 242 561 q 409 599 358 571 q 460 672 460 626 l 460 674 q 433 730 460 710 q 356 750 406 750 q 153 658 256 750 l 14 842 q 374 988 160 988 q 625 908 529 988 q 721 696 721 829 l 721 693 q 649 503 721 571 q 450 406 578 436 l 433 317 l 265 317 m 208 0 l 208 236 l 482 236 l 482 0 l 208 0 z "},"@":{"ha":1340,"x_min":63,"x_max":1276,"o":"m 682 -225 q 239 -49 415 -225 q 63 382 63 128 q 240 813 63 635 q 678 992 418 992 q 1103 831 931 992 q 1276 451 1276 669 q 1190 176 1276 274 q 981 79 1103 79 q 767 185 828 79 q 563 82 678 82 q 381 159 453 82 q 308 361 308 236 q 399 616 308 510 q 615 722 490 722 q 801 619 736 722 l 818 704 l 1033 671 l 969 313 q 964 251 964 271 q 988 192 964 215 q 1054 169 1013 169 q 1172 244 1125 169 q 1218 451 1218 318 q 1064 792 1218 649 q 678 936 910 936 q 279 776 438 936 q 121 382 121 615 q 278 -11 121 147 q 682 -169 436 -169 q 1022 -76 864 -169 l 1050 -121 q 682 -225 879 -225 m 632 269 q 726 316 688 269 q 765 429 765 363 q 737 506 765 478 q 664 535 708 535 q 569 489 608 535 q 531 378 531 443 q 559 298 531 326 q 632 269 588 269 z "},"A":{"ha":1104,"x_min":8,"x_max":1096,"o":"m 8 0 l 422 979 l 682 979 l 1096 0 l 807 0 l 736 174 l 361 174 l 292 0 l 8 0 m 440 383 l 658 383 l 550 660 l 440 383 z "},"B":{"ha":993,"x_min":86,"x_max":956,"o":"m 86 0 l 86 972 l 585 972 q 850 885 763 972 q 913 728 913 822 l 913 725 q 763 508 913 574 q 906 422 857 478 q 956 271 956 365 l 956 268 q 858 72 956 143 q 588 0 761 0 l 86 0 m 349 585 l 518 585 q 646 669 646 585 l 646 672 q 524 756 646 756 l 349 756 l 349 585 m 349 217 l 557 217 q 652 240 618 217 q 686 306 686 263 l 686 308 q 554 396 686 396 l 349 396 l 349 217 z "},"C":{"ha":1014,"x_min":53,"x_max":985,"o":"m 554 -19 q 199 124 344 -19 q 53 483 53 268 l 53 486 q 199 846 53 700 q 565 992 346 992 q 978 789 832 992 l 775 632 q 563 746 683 746 q 397 672 463 746 q 331 489 331 597 l 331 486 q 396 301 331 375 q 563 226 461 226 q 683 256 633 226 q 782 344 733 286 l 985 200 q 807 38 908 96 q 554 -19 706 -19 z "},"D":{"ha":1063,"x_min":86,"x_max":1010,"o":"m 86 0 l 86 972 l 461 972 q 863 840 717 972 q 1010 492 1010 707 l 1010 489 q 861 137 1010 274 q 456 0 713 0 l 86 0 m 356 239 l 465 239 q 660 303 588 239 q 733 485 733 368 l 733 488 q 660 668 733 603 q 465 733 588 733 l 356 733 l 356 239 z "},"E":{"ha":926,"x_min":86,"x_max":875,"o":"m 86 0 l 86 972 l 868 972 l 868 743 l 353 743 l 353 596 l 819 596 l 819 383 l 353 383 l 353 229 l 875 229 l 875 0 l 86 0 z "},"F":{"ha":900,"x_min":86,"x_max":864,"o":"m 86 0 l 86 972 l 864 972 l 864 736 l 356 736 l 356 571 l 815 571 l 815 347 l 356 347 l 356 0 l 86 0 z "},"G":{"ha":1068,"x_min":53,"x_max":1004,"o":"m 582 -19 q 203 122 354 -19 q 53 483 53 264 l 53 486 q 202 846 53 700 q 576 992 351 992 q 971 850 807 992 l 813 660 q 578 751 703 751 q 401 674 472 751 q 329 485 329 596 l 329 482 q 403 288 329 364 q 593 213 478 213 q 749 253 688 213 l 749 371 l 557 371 l 557 568 l 1004 568 l 1004 131 q 582 -19 822 -19 z "},"H":{"ha":1057,"x_min":86,"x_max":971,"o":"m 86 0 l 86 972 l 356 972 l 356 608 l 701 608 l 701 972 l 971 972 l 971 0 l 701 0 l 701 369 l 356 369 l 356 0 l 86 0 z "},"I":{"ha":454,"x_min":92,"x_max":363,"o":"m 92 0 l 92 972 l 363 972 l 363 0 l 92 0 z "},"J":{"ha":783,"x_min":6,"x_max":710,"o":"m 347 -17 q 6 147 125 -17 l 179 311 q 331 221 254 221 q 413 256 383 221 q 442 357 442 290 l 442 972 l 710 972 l 710 356 q 614 82 710 178 q 347 -17 515 -17 z "},"K":{"ha":1014,"x_min":86,"x_max":1022,"o":"m 86 0 l 86 972 l 356 972 l 356 578 l 690 972 l 1010 972 l 642 554 l 1022 0 l 699 0 l 454 361 l 356 251 l 356 0 l 86 0 z "},"L":{"ha":856,"x_min":86,"x_max":826,"o":"m 86 0 l 86 972 l 356 972 l 356 236 l 826 236 l 826 0 l 86 0 z "},"M":{"ha":1206,"x_min":86,"x_max":1119,"o":"m 86 0 l 86 972 l 371 972 l 603 596 l 835 972 l 1119 972 l 1119 0 l 851 0 l 851 558 l 603 178 l 597 178 l 350 556 l 350 0 l 86 0 z "},"N":{"ha":1090,"x_min":86,"x_max":1004,"o":"m 86 0 l 86 972 l 338 972 l 738 458 l 738 972 l 1004 972 l 1004 0 l 768 0 l 353 533 l 353 0 l 86 0 z "},"O":{"ha":1154,"x_min":53,"x_max":1100,"o":"m 949 128 q 874 54 949 128 q 575 -19 799 -19 q 202 126 351 -19 q 53 483 53 272 l 53 486 q 203 844 53 697 q 578 992 354 992 q 951 846 801 992 q 1100 489 1100 700 l 1100 486 q 949 128 1100 275 m 399 301 q 434 262 399 301 q 578 224 469 224 q 756 299 686 224 q 825 483 825 375 l 825 486 q 754 672 825 594 q 575 749 683 749 q 398 673 467 749 q 329 489 329 597 l 329 486 q 399 301 329 378 z "},"P":{"ha":935,"x_min":86,"x_max":907,"o":"m 86 0 l 86 972 l 503 972 q 798 881 689 972 q 907 631 907 790 l 907 628 q 792 369 907 461 q 489 278 676 278 l 356 278 l 356 0 l 86 0 m 356 489 l 483 489 q 596 523 554 489 q 638 615 638 557 l 638 618 q 597 713 638 681 q 482 746 556 746 l 356 746 l 356 489 z "},"Q":{"ha":1154,"x_min":53,"x_max":1114,"o":"m 978 -29 l 871 67 q 575 -19 739 -19 q 202 126 351 -19 q 53 483 53 272 l 53 486 q 203 844 53 697 q 578 992 354 992 q 951 846 801 992 q 1100 489 1100 700 l 1100 486 q 1014 207 1100 329 l 1114 122 l 978 -29 m 578 219 q 676 238 629 219 l 542 353 l 678 506 l 810 386 q 826 481 826 431 l 826 483 q 756 671 826 593 q 575 749 685 749 q 398 672 467 749 q 329 486 329 594 l 329 483 q 399 297 329 375 q 578 219 469 219 z "},"R":{"ha":999,"x_min":86,"x_max":981,"o":"m 86 0 l 86 972 l 546 972 q 863 867 760 972 q 949 640 949 783 l 949 638 q 749 339 949 424 l 981 0 l 669 0 l 474 294 l 356 294 l 356 0 l 86 0 m 356 506 l 533 506 q 640 536 601 506 q 678 621 678 567 l 678 624 q 640 710 678 681 q 532 739 601 739 l 356 739 l 356 506 z "},"S":{"ha":906,"x_min":13,"x_max":861,"o":"m 468 -17 q 13 144 193 -17 l 163 324 q 478 207 308 207 q 589 274 589 207 l 589 276 q 556 327 589 307 q 425 369 522 347 q 278 410 336 390 q 166 465 221 431 q 85 551 111 499 q 58 675 58 603 l 58 678 q 160 902 58 815 q 435 989 263 989 q 835 860 674 989 l 700 669 q 428 765 564 765 q 356 748 381 765 q 331 703 331 731 l 331 700 q 365 647 331 667 q 499 606 399 628 q 771 499 681 565 q 861 303 861 432 l 861 300 q 754 68 861 153 q 468 -17 647 -17 z "},"T":{"ha":917,"x_min":32,"x_max":885,"o":"m 324 0 l 324 736 l 32 736 l 32 972 l 885 972 l 885 736 l 593 736 l 593 0 l 324 0 z "},"U":{"ha":1053,"x_min":74,"x_max":979,"o":"m 524 -18 q 192 93 310 -18 q 74 426 74 204 l 74 972 l 347 972 l 347 432 q 395 277 347 329 q 526 225 443 225 q 658 275 610 225 q 706 425 706 325 l 706 972 l 979 972 l 979 433 q 859 94 979 206 q 524 -18 739 -18 z "},"V":{"ha":1056,"x_min":8,"x_max":1047,"o":"m 403 -7 l 8 972 l 310 972 l 531 357 l 751 972 l 1047 972 l 653 -7 l 403 -7 z "},"W":{"ha":1551,"x_min":21,"x_max":1531,"o":"m 346 -7 l 21 972 l 306 972 l 475 410 l 663 975 l 894 975 l 1082 410 l 1251 972 l 1531 972 l 1206 -7 l 971 -7 l 775 553 l 581 -7 l 346 -7 z "},"X":{"ha":1017,"x_min":15,"x_max":1001,"o":"m 15 0 l 349 494 l 29 972 l 339 972 l 511 699 l 685 972 l 988 972 l 668 497 l 1001 0 l 692 0 l 506 293 l 318 0 l 15 0 z "},"Y":{"ha":1004,"x_min":-3,"x_max":1007,"o":"m 367 0 l 367 364 l -3 972 l 304 972 l 504 618 l 706 972 l 1007 972 l 638 368 l 638 0 l 367 0 z "},"Z":{"ha":969,"x_min":56,"x_max":915,"o":"m 56 0 l 56 196 l 543 744 l 72 744 l 72 972 l 915 972 l 915 776 l 428 228 l 915 228 l 915 0 l 56 0 z "},"[":{"ha":635,"x_min":92,"x_max":572,"o":"m 92 -181 l 92 972 l 572 972 l 572 793 l 328 793 l 328 -1 l 572 -1 l 572 -181 l 92 -181 z "},"\\":{"ha":743,"x_min":-33,"x_max":796,"o":"m 582 -178 l -33 1108 l 181 1108 l 796 -178 l 582 -178 z "},"]":{"ha":635,"x_min":63,"x_max":543,"o":"m 63 -181 l 63 -1 l 307 -1 l 307 793 l 63 793 l 63 972 l 543 972 l 543 -181 l 63 -181 z "},"^":{"ha":694,"x_min":58,"x_max":636,"o":"m 58 685 l 258 971 l 436 971 l 636 685 l 451 685 l 346 819 l 240 685 l 58 685 z "},"_":{"ha":833,"x_min":-3,"x_max":836,"o":"m -3 -222 l -3 -61 l 836 -61 l 836 -222 l -3 -222 z "},"`":{"ha":694,"x_min":124,"x_max":511,"o":"m 328 817 l 124 993 l 368 1072 l 511 817 l 328 817 z "},"a":{"ha":832,"x_min":33,"x_max":768,"o":"m 286 -17 q 104 44 175 -17 q 33 215 33 106 l 33 218 q 113 393 33 332 q 328 454 192 454 q 508 425 426 454 l 508 438 q 358 560 508 560 q 151 518 257 560 l 97 704 q 401 763 239 763 q 688 671 596 763 q 768 432 768 592 l 768 0 l 507 0 l 507 78 q 286 -17 422 -17 m 381 149 q 475 183 439 149 q 511 272 511 217 l 511 307 q 408 326 465 326 q 319 301 351 326 q 288 233 288 275 l 288 231 q 313 171 288 193 q 381 149 339 149 z "},"b":{"ha":939,"x_min":71,"x_max":896,"o":"m 564 -17 q 335 92 428 -17 l 335 0 l 71 0 l 71 1014 l 335 1014 l 335 651 q 563 768 431 768 q 799 661 701 768 q 896 379 896 554 l 896 376 q 799 91 896 199 q 564 -17 703 -17 m 482 204 q 592 252 547 204 q 636 375 636 300 l 636 378 q 592 499 636 451 q 482 547 547 547 q 374 499 418 547 q 329 378 329 451 l 329 375 q 374 253 329 301 q 482 204 418 204 z "},"c":{"ha":790,"x_min":40,"x_max":768,"o":"m 433 -18 q 153 97 265 -18 q 40 372 40 211 l 40 375 q 154 652 40 538 q 443 767 268 767 q 764 599 658 767 l 585 465 q 444 544 528 544 q 340 496 382 544 q 297 378 297 447 l 297 375 q 339 253 297 301 q 447 204 381 204 q 592 282 525 204 l 768 154 q 433 -18 651 -18 z "},"d":{"ha":939,"x_min":43,"x_max":868,"o":"m 375 -17 q 140 90 236 -17 q 43 372 43 197 l 43 375 q 139 660 43 553 q 374 768 235 768 q 604 660 510 768 l 604 1014 l 868 1014 l 868 0 l 604 0 l 604 100 q 375 -17 508 -17 m 347 253 q 369 228 347 253 q 456 204 392 204 q 564 253 519 204 q 608 375 608 301 l 608 378 q 564 499 608 451 q 456 547 519 547 q 346 499 390 547 q 301 378 301 451 l 301 375 q 347 253 301 301 z "},"e":{"ha":840,"x_min":40,"x_max":799,"o":"m 443 -18 q 153 90 265 -18 q 40 372 40 199 l 40 375 q 147 655 40 542 q 419 768 254 768 q 701 651 604 768 q 799 357 799 535 q 797 303 799 321 l 294 303 q 457 179 326 179 q 624 256 546 179 l 769 135 q 443 -18 649 -18 m 290 438 l 551 438 q 510 537 544 500 q 421 574 475 574 q 335 537 369 574 q 290 438 301 500 z "},"f":{"ha":561,"x_min":31,"x_max":550,"o":"m 118 0 l 118 540 l 31 540 l 31 747 l 118 747 l 118 764 q 182 958 118 894 q 378 1024 247 1024 q 550 1003 481 1024 l 550 817 q 451 832 501 832 q 376 761 376 832 l 376 743 l 549 743 l 549 540 l 381 540 l 381 0 l 118 0 z "},"g":{"ha":939,"x_min":43,"x_max":868,"o":"m 440 -225 q 64 -139 232 -225 l 149 36 q 411 -35 276 -35 q 608 150 608 -35 l 608 179 q 376 67 511 67 q 138 163 233 67 q 43 415 43 258 l 43 418 q 138 672 43 575 q 368 768 233 768 q 604 663 504 768 l 604 751 l 868 751 l 868 181 q 771 -119 868 -22 q 440 -225 665 -225 m 456 269 q 565 311 522 269 q 608 415 608 353 l 608 418 q 565 522 608 481 q 456 563 522 563 q 345 521 389 563 q 301 417 301 479 l 301 414 q 344 310 301 351 q 456 269 388 269 z "},"h":{"ha":881,"x_min":71,"x_max":815,"o":"m 71 0 l 71 1014 l 335 1014 l 335 649 q 560 768 428 768 q 747 694 679 768 q 815 492 815 619 l 815 0 l 551 0 l 551 407 q 523 500 551 467 q 446 533 494 533 q 365 500 396 533 q 335 407 335 467 l 335 0 l 71 0 z "},"i":{"ha":417,"x_min":71,"x_max":346,"o":"m 71 819 l 71 1014 l 346 1014 l 346 819 l 71 819 m 76 0 l 76 751 l 340 751 l 340 0 l 76 0 z "},"j":{"ha":419,"x_min":-36,"x_max":346,"o":"m 71 819 l 71 1014 l 346 1014 l 346 819 l 71 819 m 72 -226 q -36 -217 39 -226 l -36 -42 q -1 -43 -25 -43 q 58 -23 39 -43 q 76 44 76 -3 l 76 751 l 340 751 l 340 33 q 273 -165 340 -104 q 72 -226 206 -226 z "},"k":{"ha":838,"x_min":71,"x_max":844,"o":"m 71 0 l 71 1014 l 335 1014 l 335 500 l 539 751 l 838 751 l 576 450 l 844 0 l 554 0 l 403 256 l 335 176 l 335 0 l 71 0 z "},"l":{"ha":417,"x_min":76,"x_max":340,"o":"m 76 0 l 76 1014 l 340 1014 l 340 0 l 76 0 z "},"m":{"ha":1349,"x_min":71,"x_max":1283,"o":"m 71 0 l 71 751 l 335 751 l 335 649 q 558 768 428 768 q 775 646 711 768 q 1026 768 882 768 q 1215 696 1147 768 q 1283 493 1283 624 l 1283 0 l 1019 0 l 1019 408 q 992 501 1019 468 q 917 533 964 533 q 838 501 868 533 q 808 408 808 468 l 808 0 l 544 0 l 544 408 q 517 501 544 468 q 442 533 489 533 q 364 501 393 533 q 335 408 335 468 l 335 0 l 71 0 z "},"n":{"ha":881,"x_min":71,"x_max":815,"o":"m 71 0 l 71 751 l 335 751 l 335 646 q 560 768 429 768 q 747 694 679 768 q 815 492 815 619 l 815 0 l 551 0 l 551 407 q 523 500 551 467 q 446 533 494 533 q 365 500 396 533 q 335 407 335 467 l 335 0 l 71 0 z "},"o":{"ha":911,"x_min":40,"x_max":871,"o":"m 454 -18 q 158 96 276 -18 q 40 372 40 210 l 40 375 q 159 653 40 538 q 457 768 278 768 q 753 654 635 768 q 871 378 871 540 l 871 375 q 752 97 871 213 q 454 -18 633 -18 m 457 206 q 570 254 526 206 q 614 372 614 303 l 614 375 q 568 494 614 444 q 454 544 522 544 q 341 496 385 544 q 297 378 297 447 l 297 375 q 343 256 297 306 q 457 206 389 206 z "},"p":{"ha":939,"x_min":71,"x_max":896,"o":"m 71 -222 l 71 751 l 335 751 l 335 651 q 563 768 431 768 q 799 661 701 768 q 896 379 896 554 l 896 376 q 799 91 896 199 q 564 -17 703 -17 q 335 92 428 -17 l 335 -222 l 71 -222 m 482 204 q 592 252 547 204 q 636 375 636 300 l 636 378 q 592 499 636 451 q 482 547 547 547 q 374 499 418 547 q 329 378 329 451 l 329 375 q 374 253 329 301 q 482 204 418 204 z "},"q":{"ha":939,"x_min":43,"x_max":868,"o":"m 604 -222 l 604 100 q 375 -17 508 -17 q 140 90 236 -17 q 43 372 43 197 l 43 375 q 139 660 43 553 q 374 768 235 768 q 604 660 510 768 l 604 751 l 868 751 l 868 -222 l 604 -222 m 347 253 q 369 228 347 253 q 456 204 392 204 q 564 253 519 204 q 608 375 608 301 l 608 378 q 564 499 608 451 q 456 547 519 547 q 346 499 390 547 q 301 378 301 451 l 301 375 q 347 253 301 301 z "},"r":{"ha":594,"x_min":71,"x_max":572,"o":"m 71 0 l 71 751 l 335 751 l 335 600 q 572 764 407 771 l 572 486 l 550 486 q 335 233 335 486 l 335 0 l 71 0 z "},"s":{"ha":714,"x_min":14,"x_max":676,"o":"m 369 -17 q 14 94 168 -17 l 113 254 q 371 168 243 168 q 438 208 438 168 l 438 211 q 411 243 438 231 q 317 275 385 256 q 210 308 253 292 q 128 352 168 325 q 69 420 89 379 q 50 515 50 461 l 50 518 q 134 701 50 635 q 351 767 218 767 q 661 679 525 767 l 571 513 q 349 582 446 582 q 288 546 288 582 l 288 543 q 314 510 288 524 q 410 476 340 497 q 609 388 542 439 q 676 238 676 338 l 676 235 q 593 49 676 114 q 369 -17 510 -17 z "},"t":{"ha":599,"x_min":28,"x_max":556,"o":"m 369 -15 q 117 233 117 -15 l 117 539 l 28 539 l 28 751 l 117 751 l 117 942 l 381 942 l 381 751 l 556 751 l 556 539 l 381 539 l 381 285 q 453 210 381 210 q 553 235 500 210 l 553 28 q 369 -15 476 -15 z "},"u":{"ha":881,"x_min":65,"x_max":810,"o":"m 321 -17 q 133 57 201 -17 q 65 260 65 131 l 65 751 l 329 751 l 329 344 q 358 251 329 285 q 436 218 388 218 q 515 251 485 218 q 546 344 546 285 l 546 751 l 810 751 l 810 0 l 546 0 l 546 103 q 321 -17 453 -17 z "},"v":{"ha":868,"x_min":14,"x_max":854,"o":"m 314 -6 l 14 751 l 292 751 l 436 313 l 581 751 l 854 751 l 554 -6 l 314 -6 z "},"w":{"ha":1196,"x_min":17,"x_max":1179,"o":"m 246 -6 l 17 751 l 275 751 l 374 374 l 489 754 l 707 754 l 824 371 l 925 751 l 1179 751 l 947 -6 l 719 -6 l 597 385 l 472 -6 l 246 -6 z "},"x":{"ha":818,"x_min":11,"x_max":807,"o":"m 11 0 l 264 379 l 15 751 l 300 751 l 411 567 l 522 751 l 801 751 l 554 381 l 807 0 l 524 0 l 407 193 l 289 0 l 11 0 z "},"y":{"ha":869,"x_min":15,"x_max":854,"o":"m 293 -226 q 51 -161 168 -226 l 133 24 q 249 -17 200 -17 q 310 14 288 -17 l 15 751 l 292 751 l 442 299 l 583 751 l 854 751 l 579 18 q 467 -171 529 -115 q 293 -226 404 -226 z "},"z":{"ha":782,"x_min":44,"x_max":742,"o":"m 44 0 l 44 174 l 392 542 l 57 542 l 57 751 l 742 751 l 742 578 l 393 210 l 742 210 l 742 0 l 44 0 z "},"{":{"ha":681,"x_min":47,"x_max":636,"o":"m 596 -196 q 311 -108 393 -171 q 229 72 229 -46 q 231 122 229 82 q 233 175 233 163 q 194 281 233 251 q 69 311 154 311 l 47 311 l 47 486 l 69 486 q 194 516 154 486 q 233 622 233 546 q 231 675 233 635 q 229 725 229 715 q 311 906 229 843 q 596 993 393 968 l 636 839 q 497 783 529 815 q 464 682 464 750 q 466 635 464 671 q 468 585 468 600 q 313 399 468 442 q 468 213 468 356 q 466 162 468 197 q 464 115 464 126 q 497 15 464 47 q 636 -42 529 -18 l 596 -196 z "},"|":{"ha":493,"x_min":146,"x_max":347,"o":"m 146 -178 l 146 1108 l 347 1108 l 347 -178 l 146 -178 z "},"}":{"ha":681,"x_min":44,"x_max":633,"o":"m 85 -196 l 44 -42 q 184 15 151 -18 q 217 115 217 47 q 215 162 217 126 q 213 213 213 197 q 368 399 213 356 q 213 585 213 442 q 215 635 213 600 q 217 682 217 671 q 184 783 217 750 q 44 839 151 815 l 85 993 q 369 906 288 968 q 451 725 451 843 q 449 675 451 715 q 447 622 447 635 q 487 516 447 546 q 611 486 526 486 l 633 486 l 633 311 l 611 311 q 487 281 526 311 q 447 175 447 251 q 449 122 447 163 q 451 72 451 82 q 369 -108 451 -46 q 85 -196 288 -171 z "},"~":{"ha":701,"x_min":57,"x_max":644,"o":"m 185 306 l 57 340 q 120 497 81 447 q 229 547 160 547 q 351 520 275 547 q 446 493 428 493 q 488 508 474 493 q 517 557 501 522 l 644 522 q 581 365 621 415 q 472 315 542 315 q 349 342 426 315 q 254 369 272 369 q 213 356 226 369 q 185 306 200 342 z "}," ":{"ha":385,"x_min":0,"x_max":0,"o":""},"¡":{"ha":450,"x_min":75,"x_max":375,"o":"m 88 736 l 88 972 l 363 972 l 363 736 l 88 736 m 75 0 l 75 118 l 156 656 l 294 656 l 375 118 l 375 0 l 75 0 z "},"¢":{"ha":799,"x_min":44,"x_max":771,"o":"m 304 128 q 116 267 188 168 q 44 490 44 365 l 44 493 q 154 768 44 657 q 439 883 264 879 l 456 981 l 615 981 l 594 860 q 769 725 707 818 l 608 601 q 543 657 578 639 l 479 307 q 611 386 553 317 l 771 269 q 460 104 661 110 l 440 -8 l 281 -8 l 304 128 m 414 682 q 313 619 351 672 q 274 496 274 567 l 274 493 q 351 331 274 378 l 414 682 z "},"£":{"ha":888,"x_min":61,"x_max":850,"o":"m 61 0 l 61 160 l 165 200 l 165 365 l 61 365 l 61 554 l 165 554 l 165 625 q 261 893 165 797 q 526 989 357 989 q 850 849 724 989 l 686 669 q 544 749 619 749 q 463 715 493 749 q 433 625 433 682 l 433 554 l 733 554 l 733 365 l 433 365 l 433 213 l 840 213 l 840 0 l 61 0 z "},"¥":{"ha":983,"x_min":6,"x_max":978,"o":"m 358 0 l 358 129 l 103 129 l 103 296 l 358 296 l 358 365 l 103 365 l 103 532 l 294 532 l 6 972 l 311 972 l 494 653 l 678 972 l 978 972 l 688 532 l 881 532 l 881 365 l 625 365 l 625 296 l 881 296 l 881 129 l 625 129 l 625 0 l 358 0 z "},"§":{"ha":869,"x_min":58,"x_max":811,"o":"m 429 -18 q 242 13 329 -18 q 100 92 156 43 l 207 243 q 435 161 321 161 q 510 203 510 161 l 510 206 q 375 268 510 240 q 251 300 300 285 q 153 339 201 315 q 82 395 106 363 q 58 471 58 428 l 58 474 q 185 626 58 581 q 119 764 119 676 l 119 767 q 203 927 119 864 q 440 990 286 990 q 627 960 540 990 q 769 881 714 929 l 663 729 q 435 811 549 811 q 360 769 360 811 l 360 767 q 494 704 360 732 q 657 661 596 682 q 765 599 718 640 q 811 501 811 558 l 811 499 q 685 346 811 392 q 750 210 750 296 l 750 207 q 667 46 750 110 q 429 -18 583 -18 m 538 413 q 608 461 608 413 l 608 464 q 468 535 608 501 q 331 560 369 560 q 260 511 260 560 l 260 508 q 400 438 260 471 q 538 413 500 413 z "},"¨":{"ha":694,"x_min":90,"x_max":606,"o":"m 381 817 l 381 1014 l 606 1014 l 606 817 l 381 817 m 90 817 l 90 1014 l 314 1014 l 314 817 l 90 817 z "},"©":{"ha":1153,"x_min":74,"x_max":1079,"o":"m 932 130 q 858 55 932 130 q 575 -19 785 -19 q 219 128 365 -19 q 74 483 74 276 l 74 486 q 221 842 74 693 q 578 992 368 992 q 933 844 788 992 q 1079 489 1079 696 l 1079 486 q 932 130 1079 279 m 575 36 q 892 168 764 36 q 1021 486 1021 300 l 1021 489 q 893 806 1021 675 q 578 936 765 936 q 260 804 389 936 q 132 486 132 672 l 132 483 q 260 167 132 297 q 575 36 388 36 m 583 217 q 383 295 463 217 q 304 490 304 374 l 304 493 q 384 689 304 608 q 588 769 464 769 q 813 660 731 769 l 700 571 q 583 633 649 633 q 494 593 529 633 q 458 494 458 553 l 458 492 q 494 392 458 432 q 583 353 529 353 q 703 417 649 353 l 817 336 q 583 217 728 217 z "},"ª":{"ha":542,"x_min":57,"x_max":472,"o":"m 200 551 q 100 585 139 551 q 61 678 61 618 l 61 681 q 105 776 61 743 q 224 810 149 810 q 322 794 279 810 l 322 800 q 239 868 322 868 q 125 844 189 868 l 96 947 q 263 979 174 979 q 421 928 369 979 q 465 796 465 885 l 465 560 l 321 560 l 321 604 q 200 551 275 551 m 57 375 l 57 482 l 472 482 l 472 375 l 57 375 m 251 643 q 303 662 283 643 q 324 711 324 681 l 324 729 q 267 740 293 740 q 219 726 238 740 q 201 690 201 713 l 201 688 q 215 655 201 667 q 251 643 229 643 z "},"«":{"ha":876,"x_min":42,"x_max":835,"o":"m 646 42 l 401 367 l 401 378 l 646 703 l 835 610 l 654 372 l 835 136 l 646 42 m 264 42 l 42 339 l 42 406 l 264 703 l 454 610 l 274 372 l 454 136 l 264 42 z "},"®":{"ha":511,"x_min":14,"x_max":497,"o":"m 256 500 q 84 571 154 500 q 14 742 14 642 l 14 743 q 85 915 14 843 q 256 986 156 986 q 427 915 357 986 q 497 744 497 844 l 497 743 q 426 572 497 643 q 256 500 356 500 m 103 590 q 134 558 103 590 q 256 526 165 526 q 408 590 346 526 q 469 743 469 654 l 469 744 q 408 897 469 833 q 256 960 346 960 q 103 896 165 960 q 42 743 42 832 l 42 742 q 103 590 42 653 m 147 621 l 147 876 l 271 876 q 352 854 322 876 q 382 789 382 832 q 331 708 382 731 l 390 621 l 300 621 l 250 694 l 226 694 l 226 621 l 147 621 m 226 754 l 267 754 q 303 782 303 754 q 268 810 303 810 l 226 810 l 226 754 z "},"¯":{"ha":694,"x_min":88,"x_max":608,"o":"m 88 826 l 88 985 l 608 985 l 608 826 l 88 826 z "},"°":{"ha":656,"x_min":75,"x_max":581,"o":"m 506 561 q 468 525 506 561 q 328 489 431 489 q 150 561 225 489 q 75 733 75 633 l 75 736 q 151 910 75 836 q 328 983 226 983 q 505 910 429 983 q 581 736 581 836 l 581 733 q 506 561 581 633 m 244 651 q 261 634 244 651 q 328 617 278 617 q 411 651 378 617 q 444 733 444 685 l 444 736 q 410 819 444 785 q 328 854 376 854 q 245 819 279 854 q 211 736 211 785 l 211 733 q 244 651 211 685 z "},"±":{"ha":889,"x_min":85,"x_max":804,"o":"m 804 522 l 554 524 l 556 290 l 333 290 l 335 524 l 85 522 l 85 732 l 335 731 l 333 964 l 556 964 l 554 731 l 804 732 l 804 522 m 804 0 l 85 0 l 85 194 l 804 194 l 804 0 z "},"´":{"ha":694,"x_min":183,"x_max":572,"o":"m 183 817 l 328 1072 l 572 993 l 367 817 l 183 817 z "},"¶":{"ha":828,"x_min":31,"x_max":742,"o":"m 471 0 l 471 306 l 442 306 q 144 392 257 306 q 31 635 31 478 l 31 638 q 140 885 31 797 q 438 972 250 972 l 742 972 l 742 0 l 471 0 z "},"·":{"ha":394,"x_min":60,"x_max":335,"o":"m 60 299 l 60 569 l 335 569 l 335 299 l 60 299 z "},"¸":{"ha":694,"x_min":153,"x_max":456,"o":"m 361 -240 l 153 -151 l 285 28 l 456 28 l 361 -240 z "},"º":{"ha":542,"x_min":46,"x_max":496,"o":"m 269 549 q 110 610 174 549 q 46 761 46 672 l 46 764 q 110 917 46 854 q 272 979 175 979 q 432 917 368 979 q 496 767 496 856 l 496 764 q 431 611 496 674 q 269 549 367 549 m 71 375 l 71 482 l 471 482 l 471 375 l 71 375 m 211 699 q 223 685 211 699 q 272 672 235 672 q 332 697 310 672 q 354 761 354 722 l 354 764 q 331 830 354 803 q 269 857 307 857 q 210 831 233 857 q 188 767 188 806 l 188 764 q 211 699 188 725 z "},"»":{"ha":876,"x_min":42,"x_max":835,"o":"m 613 42 l 424 135 l 604 372 l 424 608 l 613 703 l 835 406 l 835 339 l 613 42 m 232 42 l 42 135 l 222 372 l 42 608 l 232 703 l 475 378 l 475 367 l 232 42 z "},"¿":{"ha":750,"x_min":31,"x_max":738,"o":"m 268 736 l 268 972 l 543 972 l 543 736 l 268 736 m 376 -15 q 126 64 222 -15 q 31 276 31 143 l 31 279 q 101 469 31 403 q 301 567 172 536 l 317 656 l 485 656 l 521 424 l 508 411 q 341 374 392 401 q 290 300 290 346 l 290 299 q 318 242 290 263 q 396 222 346 222 q 597 314 494 222 l 738 131 q 376 -15 592 -15 z "},"À":{"ha":1104,"x_min":8,"x_max":1096,"o":"m 8 0 l 422 979 l 682 979 l 1096 0 l 807 0 l 736 174 l 361 174 l 292 0 l 8 0 m 440 383 l 658 383 l 550 660 l 440 383 m 506 1278 l 657 1053 l 460 1053 l 254 1201 l 506 1278 z "},"Á":{"ha":1104,"x_min":8,"x_max":1096,"o":"m 8 0 l 422 979 l 682 979 l 1096 0 l 807 0 l 736 174 l 361 174 l 292 0 l 8 0 m 440 383 l 658 383 l 550 660 l 440 383 m 449 1053 l 599 1278 l 850 1201 l 644 1053 l 449 1053 z "},"Â":{"ha":1104,"x_min":8,"x_max":1096,"o":"m 8 0 l 422 979 l 682 979 l 1096 0 l 807 0 l 736 174 l 361 174 l 292 0 l 8 0 m 440 383 l 658 383 l 550 660 l 440 383 m 264 1049 l 435 1256 l 669 1256 l 840 1049 l 660 1049 l 550 1122 l 440 1049 l 264 1049 z "},"Ã":{"ha":1104,"x_min":8,"x_max":1096,"o":"m 8 0 l 422 979 l 682 979 l 1096 0 l 807 0 l 736 174 l 361 174 l 292 0 l 8 0 m 440 383 l 658 383 l 550 660 l 440 383 m 382 1042 l 256 1076 q 320 1233 279 1183 q 431 1283 361 1283 q 559 1256 476 1283 q 660 1229 642 1229 q 702 1244 688 1229 q 732 1293 717 1258 l 858 1258 q 795 1103 836 1153 q 685 1053 754 1053 q 555 1080 638 1053 q 456 1107 472 1107 q 412 1092 428 1107 q 382 1042 396 1076 z "},"Ä":{"ha":1104,"x_min":8,"x_max":1096,"o":"m 8 0 l 422 979 l 682 979 l 1096 0 l 807 0 l 736 174 l 361 174 l 292 0 l 8 0 m 440 383 l 658 383 l 550 660 l 440 383 m 590 1053 l 590 1244 l 819 1244 l 819 1053 l 590 1053 m 283 1053 l 283 1244 l 513 1244 l 513 1053 l 283 1053 z "},"Å":{"ha":1104,"x_min":8,"x_max":1096,"o":"m 357 1029 q 414 1153 357 1104 q 553 1203 471 1203 q 692 1153 635 1203 q 749 1029 749 1104 q 707 919 749 965 l 1096 0 l 807 0 l 736 174 l 361 174 l 292 0 l 8 0 l 397 921 q 357 1029 357 968 m 440 383 l 658 383 l 550 660 l 440 383 m 481 1094 q 467 1081 481 1094 q 453 1029 453 1068 q 481 965 453 990 q 553 939 508 939 q 625 965 597 939 q 653 1029 653 990 q 625 1094 653 1068 q 553 1119 597 1119 q 481 1094 508 1119 z "},"Æ":{"ha":1476,"x_min":-7,"x_max":1424,"o":"m -7 0 l 507 972 l 1417 972 l 1417 743 l 932 743 l 932 596 l 1368 596 l 1368 383 l 932 383 l 932 229 l 1424 229 l 1424 0 l 669 0 l 669 174 l 356 174 l 265 0 l -7 0 m 464 383 l 669 383 l 669 751 l 653 751 l 464 383 z "},"Ç":{"ha":1015,"x_min":53,"x_max":985,"o":"m 528 -240 l 319 -151 l 428 -4 q 158 169 263 36 q 53 483 53 303 l 53 486 q 199 846 53 700 q 565 992 346 992 q 978 789 832 992 l 775 632 q 563 746 683 746 q 397 672 463 746 q 331 489 331 597 l 331 486 q 396 301 331 375 q 563 226 461 226 q 683 256 633 226 q 782 344 733 286 l 985 200 q 826 49 915 104 q 606 -17 736 -7 l 528 -240 z "},"È":{"ha":928,"x_min":86,"x_max":875,"o":"m 433 1264 l 585 1039 l 388 1039 l 182 1188 l 433 1264 m 86 0 l 86 972 l 868 972 l 868 743 l 353 743 l 353 596 l 819 596 l 819 383 l 353 383 l 353 229 l 875 229 l 875 0 l 86 0 z "},"É":{"ha":928,"x_min":86,"x_max":875,"o":"m 376 1039 l 526 1264 l 778 1188 l 572 1039 l 376 1039 m 86 0 l 86 972 l 868 972 l 868 743 l 353 743 l 353 596 l 819 596 l 819 383 l 353 383 l 353 229 l 875 229 l 875 0 l 86 0 z "},"Ê":{"ha":928,"x_min":86,"x_max":875,"o":"m 86 0 l 86 972 l 868 972 l 868 743 l 353 743 l 353 596 l 819 596 l 819 383 l 353 383 l 353 229 l 875 229 l 875 0 l 86 0 m 192 1039 l 363 1246 l 597 1246 l 768 1039 l 588 1039 l 478 1113 l 368 1039 l 192 1039 z "},"Ë":{"ha":928,"x_min":86,"x_max":875,"o":"m 518 1039 l 518 1231 l 747 1231 l 747 1039 l 518 1039 m 211 1039 l 211 1231 l 440 1231 l 440 1039 l 211 1039 m 86 0 l 86 972 l 868 972 l 868 743 l 353 743 l 353 596 l 819 596 l 819 383 l 353 383 l 353 229 l 875 229 l 875 0 l 86 0 z "},"Ì":{"ha":454,"x_min":-71,"x_max":363,"o":"m 92 0 l 92 972 l 363 972 l 363 0 l 92 0 m 181 1264 l 332 1039 l 135 1039 l -71 1188 l 181 1264 z "},"Í":{"ha":454,"x_min":92,"x_max":525,"o":"m 92 0 l 92 972 l 363 972 l 363 0 l 92 0 m 124 1039 l 274 1264 l 525 1188 l 319 1039 l 124 1039 z "},"Î":{"ha":454,"x_min":-60,"x_max":517,"o":"m 92 0 l 92 972 l 363 972 l 363 0 l 92 0 m -60 1039 l 111 1246 l 346 1246 l 517 1039 l 336 1039 l 226 1113 l 117 1039 l -60 1039 z "},"Ï":{"ha":454,"x_min":-40,"x_max":496,"o":"m 92 0 l 92 972 l 363 972 l 363 0 l 92 0 m 267 1039 l 267 1231 l 496 1231 l 496 1039 l 267 1039 m -40 1039 l -40 1231 l 189 1231 l 189 1039 l -40 1039 z "},"Ð":{"ha":1132,"x_min":43,"x_max":1078,"o":"m 154 0 l 154 383 l 43 383 l 43 596 l 154 596 l 154 972 l 531 972 q 931 840 785 972 q 1078 492 1078 707 l 1078 489 q 929 137 1078 274 q 525 0 781 0 l 154 0 m 415 232 l 533 232 q 731 299 658 232 q 803 485 803 365 l 803 488 q 731 674 803 607 q 533 742 658 742 l 415 742 l 415 593 l 581 593 l 581 386 l 415 386 l 415 232 z "},"Ñ":{"ha":1090,"x_min":86,"x_max":1004,"o":"m 375 1028 l 249 1063 q 313 1219 272 1169 q 424 1269 354 1269 q 552 1242 469 1269 q 653 1215 635 1215 q 695 1230 681 1215 q 725 1279 710 1244 l 851 1244 q 788 1089 829 1139 q 678 1039 747 1039 q 549 1066 631 1039 q 449 1093 467 1093 q 405 1078 421 1093 q 375 1028 389 1063 m 86 0 l 86 972 l 338 972 l 738 458 l 738 972 l 1004 972 l 1004 0 l 768 0 l 353 533 l 353 0 l 86 0 z "},"Ò":{"ha":1154,"x_min":53,"x_max":1100,"o":"m 531 1278 l 682 1053 l 485 1053 l 279 1201 l 531 1278 m 949 128 q 874 54 949 128 q 575 -19 799 -19 q 202 126 351 -19 q 53 483 53 272 l 53 486 q 203 844 53 697 q 578 992 354 992 q 951 846 801 992 q 1100 489 1100 700 l 1100 486 q 949 128 1100 275 m 399 301 q 434 262 399 301 q 578 224 469 224 q 756 299 686 224 q 825 483 825 375 l 825 486 q 754 672 825 594 q 575 749 683 749 q 398 673 467 749 q 329 489 329 597 l 329 486 q 399 301 329 378 z "},"Ó":{"ha":1154,"x_min":53,"x_max":1100,"o":"m 474 1053 l 624 1278 l 875 1201 l 669 1053 l 474 1053 m 949 128 q 874 54 949 128 q 575 -19 799 -19 q 202 126 351 -19 q 53 483 53 272 l 53 486 q 203 844 53 697 q 578 992 354 992 q 951 846 801 992 q 1100 489 1100 700 l 1100 486 q 949 128 1100 275 m 399 301 q 434 262 399 301 q 578 224 469 224 q 756 299 686 224 q 825 483 825 375 l 825 486 q 754 672 825 594 q 575 749 683 749 q 398 673 467 749 q 329 489 329 597 l 329 486 q 399 301 329 378 z "},"Ô":{"ha":1154,"x_min":53,"x_max":1100,"o":"m 949 128 q 874 54 949 128 q 575 -19 799 -19 q 202 126 351 -19 q 53 483 53 272 l 53 486 q 203 844 53 697 q 578 992 354 992 q 951 846 801 992 q 1100 489 1100 700 l 1100 486 q 949 128 1100 275 m 399 301 q 434 262 399 301 q 578 224 469 224 q 756 299 686 224 q 825 483 825 375 l 825 486 q 754 672 825 594 q 575 749 683 749 q 398 673 467 749 q 329 489 329 597 l 329 486 q 399 301 329 378 m 289 1053 l 460 1260 l 694 1260 l 865 1053 l 685 1053 l 575 1126 l 465 1053 l 289 1053 z "},"Õ":{"ha":1154,"x_min":53,"x_max":1100,"o":"m 407 1042 l 281 1076 q 345 1233 304 1183 q 456 1283 386 1283 q 584 1256 501 1283 q 685 1229 667 1229 q 727 1244 713 1229 q 757 1293 742 1258 l 883 1258 q 820 1103 861 1153 q 710 1053 779 1053 q 581 1080 664 1053 q 481 1107 497 1107 q 437 1092 453 1107 q 407 1042 421 1076 m 949 128 q 874 54 949 128 q 575 -19 799 -19 q 202 126 351 -19 q 53 483 53 272 l 53 486 q 203 844 53 697 q 578 992 354 992 q 951 846 801 992 q 1100 489 1100 700 l 1100 486 q 949 128 1100 275 m 399 301 q 434 262 399 301 q 578 224 469 224 q 756 299 686 224 q 825 483 825 375 l 825 486 q 754 672 825 594 q 575 749 683 749 q 398 673 467 749 q 329 489 329 597 l 329 486 q 399 301 329 378 z "},"Ö":{"ha":1154,"x_min":53,"x_max":1100,"o":"m 615 1053 l 615 1244 l 844 1244 l 844 1053 l 615 1053 m 308 1053 l 308 1244 l 538 1244 l 538 1053 l 308 1053 m 949 128 q 874 54 949 128 q 575 -19 799 -19 q 202 126 351 -19 q 53 483 53 272 l 53 486 q 203 844 53 697 q 578 992 354 992 q 951 846 801 992 q 1100 489 1100 700 l 1100 486 q 949 128 1100 275 m 399 301 q 434 262 399 301 q 578 224 469 224 q 756 299 686 224 q 825 483 825 375 l 825 486 q 754 672 825 594 q 575 749 683 749 q 398 673 467 749 q 329 489 329 597 l 329 486 q 399 301 329 378 z "},"×":{"ha":889,"x_min":78,"x_max":811,"o":"m 650 124 l 443 336 l 236 124 l 79 281 l 292 488 l 78 694 l 239 856 l 447 643 l 654 856 l 811 699 l 599 492 l 811 285 l 650 124 z "},"Ø":{"ha":1154,"x_min":42,"x_max":1111,"o":"m 575 -19 q 300 54 424 -19 l 246 -7 l 42 -7 l 181 149 q 53 483 53 290 l 53 486 q 203 844 53 697 q 578 992 354 992 q 853 918 732 992 l 907 979 l 1111 979 l 974 822 q 1100 489 1100 682 l 1100 486 q 949 128 1100 275 q 575 -19 799 -19 m 358 351 l 688 728 q 575 754 638 754 q 395 676 465 754 q 325 489 325 599 l 325 486 q 358 351 325 411 m 578 218 q 759 296 689 218 q 829 483 829 374 l 829 486 q 796 621 829 561 l 465 244 q 578 218 518 218 z "},"Ù":{"ha":1053,"x_min":74,"x_max":979,"o":"m 479 1264 l 631 1039 l 433 1039 l 228 1188 l 479 1264 m 524 -18 q 192 93 310 -18 q 74 426 74 204 l 74 972 l 347 972 l 347 432 q 395 277 347 329 q 526 225 443 225 q 658 275 610 225 q 706 425 706 325 l 706 972 l 979 972 l 979 433 q 859 94 979 206 q 524 -18 739 -18 z "},"Ú":{"ha":1053,"x_min":74,"x_max":979,"o":"m 422 1039 l 572 1264 l 824 1188 l 618 1039 l 422 1039 m 524 -18 q 192 93 310 -18 q 74 426 74 204 l 74 972 l 347 972 l 347 432 q 395 277 347 329 q 526 225 443 225 q 658 275 610 225 q 706 425 706 325 l 706 972 l 979 972 l 979 433 q 859 94 979 206 q 524 -18 739 -18 z "},"Û":{"ha":1053,"x_min":74,"x_max":979,"o":"m 524 -18 q 192 93 310 -18 q 74 426 74 204 l 74 972 l 347 972 l 347 432 q 395 277 347 329 q 526 225 443 225 q 658 275 610 225 q 706 425 706 325 l 706 972 l 979 972 l 979 433 q 859 94 979 206 q 524 -18 739 -18 m 239 1039 l 410 1246 l 644 1246 l 815 1039 l 635 1039 l 525 1113 l 415 1039 l 239 1039 z "},"Ü":{"ha":1053,"x_min":74,"x_max":979,"o":"m 565 1039 l 565 1231 l 794 1231 l 794 1039 l 565 1039 m 258 1039 l 258 1231 l 488 1231 l 488 1039 l 258 1039 m 524 -18 q 192 93 310 -18 q 74 426 74 204 l 74 972 l 347 972 l 347 432 q 395 277 347 329 q 526 225 443 225 q 658 275 610 225 q 706 425 706 325 l 706 972 l 979 972 l 979 433 q 859 94 979 206 q 524 -18 739 -18 z "},"Ý":{"ha":1004,"x_min":-3,"x_max":1007,"o":"m 367 0 l 367 364 l -3 972 l 304 972 l 504 618 l 706 972 l 1007 972 l 638 368 l 638 0 l 367 0 m 399 1039 l 549 1264 l 800 1188 l 594 1039 l 399 1039 z "},"Þ":{"ha":947,"x_min":86,"x_max":907,"o":"m 86 0 l 86 972 l 356 972 l 356 833 l 504 833 q 799 744 690 833 q 907 496 907 656 l 907 493 q 792 236 907 326 q 490 146 676 146 l 356 146 l 356 0 l 86 0 m 356 361 l 485 361 q 597 396 556 361 q 639 488 639 431 l 639 490 q 597 585 639 551 q 483 618 556 618 l 356 618 l 356 361 z "},"ß":{"ha":882,"x_min":71,"x_max":844,"o":"m 426 -4 l 426 185 q 542 218 501 189 q 583 297 583 247 l 583 300 q 541 377 583 349 q 426 413 499 406 l 426 553 q 540 701 540 610 l 540 704 q 513 778 540 750 q 444 806 486 806 q 364 770 394 806 q 333 671 333 735 l 333 0 l 71 0 l 71 665 q 169 928 71 831 q 449 1026 268 1026 q 701 944 607 1026 q 796 736 796 861 l 796 733 q 651 506 796 579 q 789 421 733 479 q 844 269 844 363 l 844 267 q 728 58 844 132 q 426 -4 611 -15 z "},"à":{"ha":832,"x_min":33,"x_max":768,"o":"m 286 -17 q 104 44 175 -17 q 33 215 33 106 l 33 218 q 113 393 33 332 q 328 454 192 454 q 508 425 426 454 l 508 438 q 358 560 508 560 q 151 518 257 560 l 97 704 q 401 763 239 763 q 688 671 596 763 q 768 432 768 592 l 768 0 l 507 0 l 507 78 q 286 -17 422 -17 m 381 149 q 475 183 439 149 q 511 272 511 217 l 511 307 q 408 326 465 326 q 319 301 351 326 q 288 233 288 275 l 288 231 q 313 171 288 193 q 381 149 339 149 m 339 822 l 135 999 l 379 1078 l 522 822 l 339 822 z "},"á":{"ha":832,"x_min":33,"x_max":768,"o":"m 286 -17 q 104 44 175 -17 q 33 215 33 106 l 33 218 q 113 393 33 332 q 328 454 192 454 q 508 425 426 454 l 508 438 q 358 560 508 560 q 151 518 257 560 l 97 704 q 401 763 239 763 q 688 671 596 763 q 768 432 768 592 l 768 0 l 507 0 l 507 78 q 286 -17 422 -17 m 381 149 q 475 183 439 149 q 511 272 511 217 l 511 307 q 408 326 465 326 q 319 301 351 326 q 288 233 288 275 l 288 231 q 313 171 288 193 q 381 149 339 149 m 321 822 l 465 1078 l 710 999 l 504 822 l 321 822 z "},"â":{"ha":832,"x_min":33,"x_max":768,"o":"m 286 -17 q 104 44 175 -17 q 33 215 33 106 l 33 218 q 113 393 33 332 q 328 454 192 454 q 508 425 426 454 l 508 438 q 358 560 508 560 q 151 518 257 560 l 97 704 q 401 763 239 763 q 688 671 596 763 q 768 432 768 592 l 768 0 l 507 0 l 507 78 q 286 -17 422 -17 m 381 149 q 475 183 439 149 q 511 272 511 217 l 511 307 q 408 326 465 326 q 319 301 351 326 q 288 233 288 275 l 288 231 q 313 171 288 193 q 381 149 339 149 m 136 822 l 314 1050 l 528 1050 l 706 822 l 536 822 l 419 907 l 303 822 l 136 822 z "},"ã":{"ha":832,"x_min":33,"x_max":768,"o":"m 286 -17 q 104 44 175 -17 q 33 215 33 106 l 33 218 q 113 393 33 332 q 328 454 192 454 q 508 425 426 454 l 508 438 q 358 560 508 560 q 151 518 257 560 l 97 704 q 401 763 239 763 q 688 671 596 763 q 768 432 768 592 l 768 0 l 507 0 l 507 78 q 286 -17 422 -17 m 381 149 q 475 183 439 149 q 511 272 511 217 l 511 307 q 408 326 465 326 q 319 301 351 326 q 288 233 288 275 l 288 231 q 313 171 288 193 q 381 149 339 149 m 260 811 l 133 846 q 197 1003 157 953 q 306 1053 236 1053 q 429 1026 353 1053 q 522 999 506 999 q 564 1013 550 999 q 593 1063 578 1028 l 719 1028 q 657 872 697 922 q 547 822 617 822 q 425 849 501 822 q 331 876 349 876 q 289 862 303 876 q 260 811 275 847 z "},"ä":{"ha":832,"x_min":33,"x_max":768,"o":"m 286 -17 q 104 44 175 -17 q 33 215 33 106 l 33 218 q 113 393 33 332 q 328 454 192 454 q 508 425 426 454 l 508 438 q 358 560 508 560 q 151 518 257 560 l 97 704 q 401 763 239 763 q 688 671 596 763 q 768 432 768 592 l 768 0 l 507 0 l 507 78 q 286 -17 422 -17 m 381 149 q 475 183 439 149 q 511 272 511 217 l 511 307 q 408 326 465 326 q 319 301 351 326 q 288 233 288 275 l 288 231 q 313 171 288 193 q 381 149 339 149 m 454 822 l 454 1019 l 679 1019 l 679 822 l 454 822 m 164 822 l 164 1019 l 388 1019 l 388 822 l 164 822 z "},"å":{"ha":832,"x_min":33,"x_max":768,"o":"m 286 -17 q 104 44 175 -17 q 33 215 33 106 l 33 218 q 113 393 33 332 q 328 454 192 454 q 508 425 426 454 l 508 438 q 358 560 508 560 q 151 518 257 560 l 97 704 q 401 763 239 763 q 688 671 596 763 q 768 432 768 592 l 768 0 l 507 0 l 507 78 q 286 -17 422 -17 m 381 149 q 475 183 439 149 q 511 272 511 217 l 511 307 q 408 326 465 326 q 319 301 351 326 q 288 233 288 275 l 288 231 q 313 171 288 193 q 381 149 339 149 m 291 875 q 264 901 291 875 q 238 1000 238 926 q 291 1125 238 1074 q 421 1176 344 1176 q 552 1125 499 1176 q 606 1000 606 1074 q 552 875 606 926 q 421 824 499 824 q 291 875 344 824 m 354 1069 q 340 1055 354 1069 q 326 1000 326 1040 q 354 932 326 960 q 421 904 382 904 q 489 933 461 904 q 517 1000 517 961 q 489 1069 517 1040 q 421 1097 461 1097 q 354 1069 382 1097 z "},"æ":{"ha":1306,"x_min":33,"x_max":1264,"o":"m 313 -17 q 113 44 192 -17 q 33 215 33 104 l 33 218 q 113 393 33 332 q 328 454 192 454 q 508 425 426 454 l 508 438 q 358 560 508 560 q 151 518 257 560 l 97 704 q 401 763 239 763 q 656 678 571 763 q 890 768 750 768 q 1167 651 1071 768 q 1264 357 1264 533 q 1261 303 1264 339 l 758 303 q 921 179 792 179 q 1088 256 1010 179 l 1233 135 q 908 -18 1113 -18 q 614 94 726 -18 q 313 -17 468 -17 m 756 438 l 1017 438 q 974 537 1010 500 q 885 574 939 574 q 799 537 833 574 q 756 438 765 500 m 385 151 q 536 213 460 151 q 510 307 515 261 q 408 326 464 326 q 319 301 351 326 q 288 233 288 275 l 288 231 q 315 173 288 194 q 385 151 342 151 z "},"ç":{"ha":790,"x_min":40,"x_max":768,"o":"m 406 -240 l 197 -151 l 308 0 q 115 141 189 39 q 40 372 40 243 l 40 375 q 154 652 40 538 q 443 767 268 767 q 764 599 658 767 l 585 465 q 444 544 528 544 q 340 496 382 544 q 297 378 297 447 l 297 375 q 339 253 297 301 q 447 204 381 204 q 592 282 525 204 l 768 154 q 485 -15 665 3 l 406 -240 z "},"è":{"ha":842,"x_min":40,"x_max":799,"o":"m 443 -18 q 153 90 265 -18 q 40 372 40 199 l 40 375 q 147 655 40 542 q 419 768 254 768 q 701 651 604 768 q 799 357 799 535 q 797 303 799 321 l 294 303 q 457 179 326 179 q 624 256 546 179 l 769 135 q 443 -18 649 -18 m 290 438 l 551 438 q 510 537 544 500 q 421 574 475 574 q 335 537 369 574 q 290 438 301 500 m 340 822 l 136 999 l 381 1078 l 524 822 l 340 822 z "},"é":{"ha":842,"x_min":40,"x_max":799,"o":"m 322 822 l 467 1078 l 711 999 l 506 822 l 322 822 m 443 -18 q 153 90 265 -18 q 40 372 40 199 l 40 375 q 147 655 40 542 q 419 768 254 768 q 701 651 604 768 q 799 357 799 535 q 797 303 799 321 l 294 303 q 457 179 326 179 q 624 256 546 179 l 769 135 q 443 -18 649 -18 m 290 438 l 551 438 q 510 537 544 500 q 421 574 475 574 q 335 537 369 574 q 290 438 301 500 z "},"ê":{"ha":842,"x_min":40,"x_max":799,"o":"m 138 822 l 315 1050 l 529 1050 l 707 822 l 538 822 l 421 907 l 304 822 l 138 822 m 443 -18 q 153 90 265 -18 q 40 372 40 199 l 40 375 q 147 655 40 542 q 419 768 254 768 q 701 651 604 768 q 799 357 799 535 q 797 303 799 321 l 294 303 q 457 179 326 179 q 624 256 546 179 l 769 135 q 443 -18 649 -18 m 290 438 l 551 438 q 510 537 544 500 q 421 574 475 574 q 335 537 369 574 q 290 438 301 500 z "},"ë":{"ha":842,"x_min":40,"x_max":799,"o":"m 456 822 l 456 1019 l 681 1019 l 681 822 l 456 822 m 165 822 l 165 1019 l 389 1019 l 389 822 l 165 822 m 443 -18 q 153 90 265 -18 q 40 372 40 199 l 40 375 q 147 655 40 542 q 419 768 254 768 q 701 651 604 768 q 799 357 799 535 q 797 303 799 321 l 294 303 q 457 179 326 179 q 624 256 546 179 l 769 135 q 443 -18 649 -18 m 290 438 l 551 438 q 510 537 544 500 q 421 574 475 574 q 335 537 369 574 q 290 438 301 500 z "},"ì":{"ha":418,"x_min":-78,"x_max":340,"o":"m 76 0 l 76 751 l 340 751 l 340 0 l 76 0 m 126 817 l -78 993 l 167 1072 l 310 817 l 126 817 z "},"í":{"ha":418,"x_min":76,"x_max":497,"o":"m 108 817 l 253 1072 l 497 993 l 292 817 l 108 817 m 76 0 l 76 751 l 340 751 l 340 0 l 76 0 z "},"î":{"ha":418,"x_min":-76,"x_max":493,"o":"m -76 817 l 101 1044 l 315 1044 l 493 817 l 324 817 l 207 901 l 90 817 l -76 817 m 76 0 l 76 751 l 340 751 l 340 0 l 76 0 z "},"ï":{"ha":418,"x_min":-49,"x_max":467,"o":"m 242 817 l 242 1014 l 467 1014 l 467 817 l 242 817 m -49 817 l -49 1014 l 175 1014 l 175 817 l -49 817 m 76 0 l 76 751 l 340 751 l 340 0 l 76 0 z "},"ð":{"ha":913,"x_min":42,"x_max":869,"o":"m 765 903 l 676 882 q 869 425 869 672 l 869 422 q 756 106 869 231 q 454 -18 642 -18 q 158 96 274 -18 q 42 388 42 210 l 42 390 q 133 649 42 547 q 361 750 224 750 q 536 699 451 750 q 431 826 494 763 l 264 788 l 224 903 l 321 925 q 197 1014 264 971 l 529 1014 l 571 981 l 726 1017 l 765 903 m 457 206 q 572 253 528 206 q 615 371 615 301 l 615 374 q 569 494 615 444 q 454 543 524 543 q 340 495 383 543 q 297 376 297 447 l 297 374 q 342 255 297 304 q 457 206 388 206 z "},"ñ":{"ha":881,"x_min":71,"x_max":815,"o":"m 71 0 l 71 751 l 335 751 l 335 646 q 560 768 429 768 q 747 694 679 768 q 815 492 815 619 l 815 0 l 551 0 l 551 407 q 523 500 551 467 q 446 533 494 533 q 365 500 396 533 q 335 407 335 467 l 335 0 l 71 0 m 281 811 l 154 846 q 217 1003 178 953 q 326 1053 257 1053 q 449 1026 372 1053 q 543 999 525 999 q 585 1013 571 999 q 614 1063 599 1028 l 740 1028 q 678 872 718 922 q 568 822 638 822 q 446 849 522 822 q 351 876 369 876 q 310 862 324 876 q 281 811 296 847 z "},"ò":{"ha":911,"x_min":40,"x_max":871,"o":"m 454 -18 q 158 96 276 -18 q 40 372 40 210 l 40 375 q 159 653 40 538 q 457 768 278 768 q 753 654 635 768 q 871 378 871 540 l 871 375 q 752 97 871 213 q 454 -18 633 -18 m 457 206 q 570 254 526 206 q 614 372 614 303 l 614 375 q 568 494 614 444 q 454 544 522 544 q 341 496 385 544 q 297 378 297 447 l 297 375 q 343 256 297 306 q 457 206 389 206 m 372 822 l 168 999 l 413 1078 l 556 822 l 372 822 z "},"ó":{"ha":911,"x_min":40,"x_max":871,"o":"m 354 822 l 499 1078 l 743 999 l 538 822 l 354 822 m 454 -18 q 158 96 276 -18 q 40 372 40 210 l 40 375 q 159 653 40 538 q 457 768 278 768 q 753 654 635 768 q 871 378 871 540 l 871 375 q 752 97 871 213 q 454 -18 633 -18 m 457 206 q 570 254 526 206 q 614 372 614 303 l 614 375 q 568 494 614 444 q 454 544 522 544 q 341 496 385 544 q 297 378 297 447 l 297 375 q 343 256 297 306 q 457 206 389 206 z "},"ô":{"ha":911,"x_min":40,"x_max":871,"o":"m 171 822 l 349 1050 l 563 1050 l 740 822 l 571 822 l 454 907 l 338 822 l 171 822 m 454 -18 q 158 96 276 -18 q 40 372 40 210 l 40 375 q 159 653 40 538 q 457 768 278 768 q 753 654 635 768 q 871 378 871 540 l 871 375 q 752 97 871 213 q 454 -18 633 -18 m 457 206 q 570 254 526 206 q 614 372 614 303 l 614 375 q 568 494 614 444 q 454 544 522 544 q 341 496 385 544 q 297 378 297 447 l 297 375 q 343 256 297 306 q 457 206 389 206 z "},"õ":{"ha":911,"x_min":40,"x_max":871,"o":"m 454 -18 q 158 96 276 -18 q 40 372 40 210 l 40 375 q 159 653 40 538 q 457 768 278 768 q 753 654 635 768 q 871 378 871 540 l 871 375 q 752 97 871 213 q 454 -18 633 -18 m 457 206 q 570 254 526 206 q 614 372 614 303 l 614 375 q 568 494 614 444 q 454 544 522 544 q 341 496 385 544 q 297 378 297 447 l 297 375 q 343 256 297 306 q 457 206 389 206 m 293 811 l 167 846 q 230 1003 190 953 q 339 1053 269 1053 q 462 1026 386 1053 q 556 999 538 999 q 597 1013 583 999 q 626 1063 611 1028 l 753 1028 q 690 872 731 922 q 581 822 650 822 q 458 849 535 822 q 364 876 382 876 q 322 862 336 876 q 293 811 308 847 z "},"ö":{"ha":911,"x_min":40,"x_max":871,"o":"m 489 822 l 489 1019 l 714 1019 l 714 822 l 489 822 m 199 822 l 199 1019 l 422 1019 l 422 822 l 199 822 m 454 -18 q 158 96 276 -18 q 40 372 40 210 l 40 375 q 159 653 40 538 q 457 768 278 768 q 753 654 635 768 q 871 378 871 540 l 871 375 q 752 97 871 213 q 454 -18 633 -18 m 457 206 q 570 254 526 206 q 614 372 614 303 l 614 375 q 568 494 614 444 q 454 544 522 544 q 341 496 385 544 q 297 378 297 447 l 297 375 q 343 256 297 306 q 457 206 389 206 z "},"÷":{"ha":889,"x_min":79,"x_max":810,"o":"m 321 683 l 321 907 l 568 907 l 568 683 l 321 683 m 810 383 l 79 383 l 79 594 l 810 594 l 810 383 m 321 71 l 321 294 l 568 294 l 568 71 l 321 71 z "},"ø":{"ha":911,"x_min":19,"x_max":892,"o":"m 454 -18 q 243 35 340 -18 l 204 -7 l 19 -7 l 135 121 q 40 372 40 228 l 40 375 q 159 653 40 538 q 457 768 278 768 q 667 715 572 768 l 707 758 l 892 758 q 776 631 804 663 q 871 378 871 524 l 871 375 q 752 97 871 213 q 454 -18 633 -18 m 300 303 l 517 543 q 454 556 490 556 q 333 503 381 556 q 286 378 286 451 l 286 375 q 300 303 286 340 m 457 194 q 578 247 531 194 q 625 372 625 299 l 625 375 q 611 447 625 410 l 396 206 q 457 194 425 194 z "},"ù":{"ha":881,"x_min":65,"x_max":810,"o":"m 321 -17 q 133 57 201 -17 q 65 260 65 131 l 65 751 l 329 751 l 329 344 q 358 251 329 285 q 436 218 388 218 q 515 251 485 218 q 546 344 546 285 l 546 751 l 810 751 l 810 0 l 546 0 l 546 103 q 321 -17 453 -17 m 354 817 l 150 993 l 394 1072 l 538 817 l 354 817 z "},"ú":{"ha":881,"x_min":65,"x_max":810,"o":"m 336 817 l 481 1072 l 725 993 l 519 817 l 336 817 m 321 -17 q 133 57 201 -17 q 65 260 65 131 l 65 751 l 329 751 l 329 344 q 358 251 329 285 q 436 218 388 218 q 515 251 485 218 q 546 344 546 285 l 546 751 l 810 751 l 810 0 l 546 0 l 546 103 q 321 -17 453 -17 z "},"û":{"ha":881,"x_min":65,"x_max":810,"o":"m 151 817 l 329 1044 l 543 1044 l 721 817 l 551 817 l 435 901 l 318 817 l 151 817 m 321 -17 q 133 57 201 -17 q 65 260 65 131 l 65 751 l 329 751 l 329 344 q 358 251 329 285 q 436 218 388 218 q 515 251 485 218 q 546 344 546 285 l 546 751 l 810 751 l 810 0 l 546 0 l 546 103 q 321 -17 453 -17 z "},"ü":{"ha":881,"x_min":65,"x_max":810,"o":"m 469 817 l 469 1014 l 694 1014 l 694 817 l 469 817 m 179 817 l 179 1014 l 403 1014 l 403 817 l 179 817 m 321 -17 q 133 57 201 -17 q 65 260 65 131 l 65 751 l 329 751 l 329 344 q 358 251 329 285 q 436 218 388 218 q 515 251 485 218 q 546 344 546 285 l 546 751 l 810 751 l 810 0 l 546 0 l 546 103 q 321 -17 453 -17 z "},"ý":{"ha":869,"x_min":15,"x_max":854,"o":"m 293 -226 q 51 -161 168 -226 l 133 24 q 249 -17 200 -17 q 310 14 288 -17 l 15 751 l 292 751 l 442 299 l 583 751 l 854 751 l 579 18 q 467 -171 529 -115 q 293 -226 404 -226 m 338 817 l 482 1072 l 726 993 l 521 817 l 338 817 z "},"þ":{"ha":939,"x_min":71,"x_max":896,"o":"m 71 -222 l 71 1014 l 335 1014 l 335 651 q 563 768 431 768 q 799 661 701 768 q 896 379 896 554 l 896 376 q 799 91 896 199 q 564 -17 703 -17 q 335 92 428 -17 l 335 -222 l 71 -222 m 374 253 q 396 228 374 253 q 483 204 418 204 q 592 252 549 204 q 636 375 636 300 l 636 378 q 592 499 636 451 q 482 547 547 547 q 374 499 418 547 q 329 378 329 451 l 329 375 q 374 253 329 301 z "},"ÿ":{"ha":869,"x_min":15,"x_max":854,"o":"m 293 -226 q 51 -161 168 -226 l 133 24 q 249 -17 200 -17 q 310 14 288 -17 l 15 751 l 292 751 l 442 299 l 583 751 l 854 751 l 579 18 q 467 -171 529 -115 q 293 -226 404 -226 m 472 817 l 472 1014 l 697 1014 l 697 817 l 472 817 m 182 817 l 182 1014 l 406 1014 l 406 817 l 182 817 z "},"Ā":{"ha":1104,"x_min":8,"x_max":1096,"o":"m 8 0 l 422 979 l 682 979 l 1096 0 l 807 0 l 736 174 l 361 174 l 292 0 l 8 0 m 440 383 l 658 383 l 550 660 l 440 383 m 275 1063 l 275 1225 l 828 1225 l 828 1063 l 275 1063 z "},"ā":{"ha":832,"x_min":33,"x_max":768,"o":"m 286 -17 q 104 44 175 -17 q 33 215 33 106 l 33 218 q 113 393 33 332 q 328 454 192 454 q 508 425 426 454 l 508 438 q 358 560 508 560 q 151 518 257 560 l 97 704 q 401 763 239 763 q 688 671 596 763 q 768 432 768 592 l 768 0 l 507 0 l 507 78 q 286 -17 422 -17 m 381 149 q 475 183 439 149 q 511 272 511 217 l 511 307 q 408 326 465 326 q 319 301 351 326 q 288 233 288 275 l 288 231 q 313 171 288 193 q 381 149 339 149 m 161 832 l 161 990 l 682 990 l 682 832 l 161 832 z "},"Ă":{"ha":1104,"x_min":8,"x_max":1096,"o":"m 8 0 l 422 979 l 682 979 l 1096 0 l 807 0 l 736 174 l 361 174 l 292 0 l 8 0 m 440 383 l 658 383 l 550 660 l 440 383 m 741 1103 q 705 1077 741 1103 q 553 1050 669 1050 q 365 1103 436 1050 q 279 1260 293 1157 l 439 1260 q 553 1197 465 1197 q 668 1260 640 1197 l 826 1260 q 741 1103 813 1157 z "},"ă":{"ha":832,"x_min":33,"x_max":768,"o":"m 286 -17 q 104 44 175 -17 q 33 215 33 106 l 33 218 q 113 393 33 332 q 328 454 192 454 q 508 425 426 454 l 508 438 q 358 560 508 560 q 151 518 257 560 l 97 704 q 401 763 239 763 q 688 671 596 763 q 768 432 768 592 l 768 0 l 507 0 l 507 78 q 286 -17 422 -17 m 381 149 q 475 183 439 149 q 511 272 511 217 l 511 307 q 408 326 465 326 q 319 301 351 326 q 288 233 288 275 l 288 231 q 313 171 288 193 q 381 149 339 149 m 611 880 q 574 850 611 880 q 421 819 538 819 q 231 880 304 819 q 147 1050 157 940 l 301 1050 q 421 969 329 969 q 540 1050 513 969 l 694 1050 q 611 880 685 940 z "},"Ą":{"ha":1104,"x_min":8,"x_max":1104,"o":"m 1104 -228 q 892 -212 974 -246 q 811 -112 811 -178 q 867 0 811 -56 l 807 0 l 736 174 l 361 174 l 292 0 l 8 0 l 422 979 l 682 979 l 1096 0 l 1035 0 q 1004 -65 1004 -35 q 1104 -115 1004 -119 l 1104 -228 m 440 383 l 658 383 l 550 660 l 440 383 z "},"ą":{"ha":832,"x_min":33,"x_max":775,"o":"m 775 -228 q 563 -212 644 -246 q 482 -112 482 -178 q 538 0 482 -56 l 507 0 l 507 78 q 286 -17 422 -17 q 104 44 175 -17 q 33 215 33 106 l 33 218 q 113 393 33 332 q 328 454 192 454 q 508 425 426 454 l 508 438 q 358 560 508 560 q 151 518 257 560 l 97 704 q 401 763 239 763 q 688 671 596 763 q 768 432 768 592 l 768 0 l 706 0 q 675 -65 675 -35 q 775 -115 675 -119 l 775 -228 m 381 149 q 475 183 439 149 q 511 272 511 217 l 511 307 q 408 326 465 326 q 319 301 351 326 q 288 233 288 275 l 288 231 q 313 171 288 193 q 381 149 339 149 z "},"Ć":{"ha":1015,"x_min":53,"x_max":985,"o":"m 554 -19 q 199 124 344 -19 q 53 483 53 268 l 53 486 q 199 846 53 700 q 565 992 346 992 q 978 789 832 992 l 775 632 q 563 746 683 746 q 397 672 463 746 q 331 489 331 597 l 331 486 q 396 301 331 375 q 563 226 461 226 q 683 256 633 226 q 782 344 733 286 l 985 200 q 807 38 908 96 q 554 -19 706 -19 m 450 1053 l 600 1278 l 851 1201 l 646 1053 l 450 1053 z "},"ć":{"ha":790,"x_min":40,"x_max":768,"o":"m 338 822 l 482 1078 l 726 999 l 521 822 l 338 822 m 433 -18 q 153 97 265 -18 q 40 372 40 211 l 40 375 q 154 652 40 538 q 443 767 268 767 q 764 599 658 767 l 585 465 q 444 544 528 544 q 340 496 382 544 q 297 378 297 447 l 297 375 q 339 253 297 301 q 447 204 381 204 q 592 282 525 204 l 768 154 q 433 -18 651 -18 z "},"Ċ":{"ha":1015,"x_min":53,"x_max":985,"o":"m 436 1053 l 436 1244 l 672 1244 l 672 1053 l 436 1053 m 554 -19 q 199 124 344 -19 q 53 483 53 268 l 53 486 q 199 846 53 700 q 565 992 346 992 q 978 789 832 992 l 775 632 q 563 746 683 746 q 397 672 463 746 q 331 489 331 597 l 331 486 q 396 301 331 375 q 563 226 461 226 q 683 256 633 226 q 782 344 733 286 l 985 200 q 807 38 908 96 q 554 -19 706 -19 z "},"ċ":{"ha":790,"x_min":40,"x_max":768,"o":"m 433 -18 q 153 97 265 -18 q 40 372 40 211 l 40 375 q 154 652 40 538 q 443 767 268 767 q 764 599 658 767 l 585 465 q 444 544 528 544 q 340 496 382 544 q 297 378 297 447 l 297 375 q 339 253 297 301 q 447 204 381 204 q 592 282 525 204 l 768 154 q 433 -18 651 -18 m 324 822 l 324 1019 l 556 1019 l 556 822 l 324 822 z "},"Č":{"ha":1015,"x_min":53,"x_max":985,"o":"m 554 -19 q 199 124 344 -19 q 53 483 53 268 l 53 486 q 199 846 53 700 q 565 992 346 992 q 978 789 832 992 l 775 632 q 563 746 683 746 q 397 672 463 746 q 331 489 331 597 l 331 486 q 396 301 331 375 q 563 226 461 226 q 683 256 633 226 q 782 344 733 286 l 985 200 q 807 38 908 96 q 554 -19 706 -19 m 843 1260 l 672 1053 l 438 1053 l 267 1260 l 446 1260 l 556 1186 l 665 1260 l 843 1260 z "},"č":{"ha":790,"x_min":40,"x_max":768,"o":"m 724 1050 l 546 822 l 332 822 l 154 1050 l 324 1050 l 440 965 l 557 1050 l 724 1050 m 433 -18 q 153 97 265 -18 q 40 372 40 211 l 40 375 q 154 652 40 538 q 443 767 268 767 q 764 599 658 767 l 585 465 q 444 544 528 544 q 340 496 382 544 q 297 378 297 447 l 297 375 q 339 253 297 301 q 447 204 381 204 q 592 282 525 204 l 768 154 q 433 -18 651 -18 z "},"Ď":{"ha":1064,"x_min":86,"x_max":1010,"o":"m 803 1246 l 632 1039 l 397 1039 l 226 1246 l 406 1246 l 515 1172 l 625 1246 l 803 1246 m 86 0 l 86 972 l 461 972 q 863 840 717 972 q 1010 492 1010 707 l 1010 489 q 861 137 1010 274 q 456 0 713 0 l 86 0 m 356 239 l 465 239 q 660 303 588 239 q 733 485 733 368 l 733 488 q 660 668 733 603 q 465 733 588 733 l 356 733 l 356 239 z "},"ď":{"ha":939,"x_min":43,"x_max":1129,"o":"m 932 715 l 947 1014 l 1129 1014 l 1129 1010 l 1039 715 l 932 715 m 375 -17 q 140 90 236 -17 q 43 372 43 197 l 43 375 q 139 660 43 553 q 374 768 235 768 q 604 660 510 768 l 604 1014 l 868 1014 l 868 0 l 604 0 l 604 100 q 375 -17 508 -17 m 347 253 q 369 228 347 253 q 456 204 392 204 q 564 253 519 204 q 608 375 608 301 l 608 378 q 564 499 608 451 q 456 547 519 547 q 346 499 390 547 q 301 378 301 451 l 301 375 q 347 253 301 301 z "},"Đ":{"ha":1132,"x_min":43,"x_max":1078,"o":"m 154 0 l 154 383 l 43 383 l 43 596 l 154 596 l 154 972 l 531 972 q 931 840 785 972 q 1078 492 1078 707 l 1078 489 q 929 137 1078 274 q 525 0 781 0 l 154 0 m 415 232 l 533 232 q 731 299 658 232 q 803 485 803 365 l 803 488 q 731 674 803 607 q 533 742 658 742 l 415 742 l 415 593 l 581 593 l 581 386 l 415 386 l 415 232 z "},"đ":{"ha":939,"x_min":43,"x_max":956,"o":"m 396 825 l 396 950 l 604 950 l 604 1014 l 868 1014 l 868 950 l 956 950 l 956 825 l 868 825 l 868 0 l 604 0 l 604 100 q 375 -17 508 -17 q 140 90 236 -17 q 43 372 43 197 l 43 375 q 139 660 43 553 q 374 768 235 768 q 604 660 510 768 l 604 825 l 396 825 m 347 253 q 369 228 347 253 q 456 204 392 204 q 564 253 519 204 q 608 375 608 301 l 608 378 q 564 499 608 451 q 456 547 519 547 q 346 499 390 547 q 301 378 301 451 l 301 375 q 347 253 301 301 z "},"Ē":{"ha":928,"x_min":86,"x_max":875,"o":"m 203 1049 l 203 1211 l 756 1211 l 756 1049 l 203 1049 m 86 0 l 86 972 l 868 972 l 868 743 l 353 743 l 353 596 l 819 596 l 819 383 l 353 383 l 353 229 l 875 229 l 875 0 l 86 0 z "},"ē":{"ha":842,"x_min":40,"x_max":799,"o":"m 443 -18 q 153 90 265 -18 q 40 372 40 199 l 40 375 q 147 655 40 542 q 419 768 254 768 q 701 651 604 768 q 799 357 799 535 q 797 303 799 321 l 294 303 q 457 179 326 179 q 624 256 546 179 l 769 135 q 443 -18 649 -18 m 290 438 l 551 438 q 510 537 544 500 q 421 574 475 574 q 335 537 369 574 q 290 438 301 500 m 163 832 l 163 990 l 683 990 l 683 832 l 163 832 z "},"Ĕ":{"ha":928,"x_min":86,"x_max":875,"o":"m 669 1090 q 633 1063 669 1090 q 481 1036 597 1036 q 292 1090 364 1036 q 207 1246 221 1143 l 367 1246 q 481 1183 393 1183 q 596 1246 568 1183 l 754 1246 q 669 1090 740 1143 m 86 0 l 86 972 l 868 972 l 868 743 l 353 743 l 353 596 l 819 596 l 819 383 l 353 383 l 353 229 l 875 229 l 875 0 l 86 0 z "},"ĕ":{"ha":842,"x_min":40,"x_max":799,"o":"m 443 -18 q 153 90 265 -18 q 40 372 40 199 l 40 375 q 147 655 40 542 q 419 768 254 768 q 701 651 604 768 q 799 357 799 535 q 797 303 799 321 l 294 303 q 457 179 326 179 q 624 256 546 179 l 769 135 q 443 -18 649 -18 m 290 438 l 551 438 q 510 537 544 500 q 421 574 475 574 q 335 537 369 574 q 290 438 301 500 m 613 880 q 576 850 613 880 q 422 819 539 819 q 232 880 306 819 q 149 1050 158 940 l 303 1050 q 422 969 331 969 q 542 1050 514 969 l 696 1050 q 613 880 686 940 z "},"Ė":{"ha":928,"x_min":86,"x_max":875,"o":"m 361 1039 l 361 1231 l 597 1231 l 597 1039 l 361 1039 m 86 0 l 86 972 l 868 972 l 868 743 l 353 743 l 353 596 l 819 596 l 819 383 l 353 383 l 353 229 l 875 229 l 875 0 l 86 0 z "},"ė":{"ha":842,"x_min":40,"x_max":799,"o":"m 443 -18 q 153 90 265 -18 q 40 372 40 199 l 40 375 q 147 655 40 542 q 419 768 254 768 q 701 651 604 768 q 799 357 799 535 q 797 303 799 321 l 294 303 q 457 179 326 179 q 624 256 546 179 l 769 135 q 443 -18 649 -18 m 290 438 l 551 438 q 510 537 544 500 q 421 574 475 574 q 335 537 369 574 q 290 438 301 500 m 307 822 l 307 1019 l 539 1019 l 539 822 l 307 822 z "},"Ę":{"ha":928,"x_min":86,"x_max":875,"o":"m 86 0 l 86 972 l 868 972 l 868 743 l 353 743 l 353 596 l 819 596 l 819 383 l 353 383 l 353 229 l 875 229 l 875 0 l 804 0 q 774 -65 774 -35 q 874 -115 774 -119 l 874 -228 q 662 -212 743 -246 q 581 -112 581 -178 q 636 0 581 -56 l 86 0 z "},"ę":{"ha":840,"x_min":40,"x_max":799,"o":"m 443 -18 q 153 90 265 -18 q 40 372 40 199 l 40 375 q 147 655 40 542 q 419 768 254 768 q 701 651 604 768 q 799 357 799 535 q 797 303 799 321 l 294 303 q 457 179 326 179 q 624 256 546 179 l 769 135 q 681 43 725 83 q 615 -60 615 -18 q 717 -115 615 -119 l 717 -228 q 505 -212 586 -246 q 424 -117 424 -179 q 472 -17 424 -68 q 458 -17 468 -17 q 443 -18 447 -18 m 290 438 l 551 438 q 510 537 544 500 q 421 574 475 574 q 335 537 369 574 q 290 438 301 500 z "},"Ě":{"ha":928,"x_min":86,"x_max":875,"o":"m 768 1246 l 597 1039 l 363 1039 l 192 1246 l 371 1246 l 481 1172 l 590 1246 l 768 1246 m 86 0 l 86 972 l 868 972 l 868 743 l 353 743 l 353 596 l 819 596 l 819 383 l 353 383 l 353 229 l 875 229 l 875 0 l 86 0 z "},"ě":{"ha":842,"x_min":40,"x_max":799,"o":"m 707 1050 l 529 822 l 315 822 l 138 1050 l 307 1050 l 424 965 l 540 1050 l 707 1050 m 443 -18 q 153 90 265 -18 q 40 372 40 199 l 40 375 q 147 655 40 542 q 419 768 254 768 q 701 651 604 768 q 799 357 799 535 q 797 303 799 321 l 294 303 q 457 179 326 179 q 624 256 546 179 l 769 135 q 443 -18 649 -18 m 290 438 l 551 438 q 510 537 544 500 q 421 574 475 574 q 335 537 369 574 q 290 438 301 500 z "},"Ğ":{"ha":1068,"x_min":53,"x_max":1004,"o":"m 755 1103 q 719 1077 755 1103 q 567 1050 683 1050 q 378 1103 450 1050 q 293 1260 307 1157 l 453 1260 q 567 1197 479 1197 q 682 1260 654 1197 l 840 1260 q 755 1103 826 1157 m 582 -19 q 203 122 354 -19 q 53 483 53 264 l 53 486 q 202 846 53 700 q 576 992 351 992 q 971 850 807 992 l 813 660 q 578 751 703 751 q 401 674 472 751 q 329 485 329 596 l 329 482 q 403 288 329 364 q 593 213 478 213 q 749 253 688 213 l 749 371 l 557 371 l 557 568 l 1004 568 l 1004 131 q 582 -19 822 -19 z "},"ğ":{"ha":939,"x_min":43,"x_max":868,"o":"m 440 -225 q 64 -139 232 -225 l 149 36 q 411 -35 276 -35 q 608 150 608 -35 l 608 179 q 376 67 511 67 q 138 163 233 67 q 43 415 43 258 l 43 418 q 138 672 43 575 q 368 768 233 768 q 604 663 504 768 l 604 751 l 868 751 l 868 181 q 771 -119 868 -22 q 440 -225 665 -225 m 456 269 q 565 311 522 269 q 608 415 608 353 l 608 418 q 565 522 608 481 q 456 563 522 563 q 345 521 389 563 q 301 417 301 479 l 301 414 q 344 310 301 351 q 456 269 388 269 m 672 880 q 635 850 672 880 q 482 819 599 819 q 292 880 365 819 q 208 1050 218 940 l 363 1050 q 482 969 390 969 q 601 1050 574 969 l 756 1050 q 672 880 746 940 z "},"Ġ":{"ha":1068,"x_min":53,"x_max":1004,"o":"m 447 1053 l 447 1244 l 683 1244 l 683 1053 l 447 1053 m 582 -19 q 203 122 354 -19 q 53 483 53 264 l 53 486 q 202 846 53 700 q 576 992 351 992 q 971 850 807 992 l 813 660 q 578 751 703 751 q 401 674 472 751 q 329 485 329 596 l 329 482 q 403 288 329 364 q 593 213 478 213 q 749 253 688 213 l 749 371 l 557 371 l 557 568 l 1004 568 l 1004 131 q 582 -19 822 -19 z "},"ġ":{"ha":939,"x_min":43,"x_max":868,"o":"m 440 -225 q 64 -139 232 -225 l 149 36 q 411 -35 276 -35 q 608 150 608 -35 l 608 179 q 376 67 511 67 q 138 163 233 67 q 43 415 43 258 l 43 418 q 138 672 43 575 q 368 768 233 768 q 604 663 504 768 l 604 751 l 868 751 l 868 181 q 771 -119 868 -22 q 440 -225 665 -225 m 456 269 q 565 311 522 269 q 608 415 608 353 l 608 418 q 565 522 608 481 q 456 563 522 563 q 345 521 389 563 q 301 417 301 479 l 301 414 q 344 310 301 351 q 456 269 388 269 m 367 822 l 367 1019 l 599 1019 l 599 822 l 367 822 z "},"Ģ":{"ha":1068,"x_min":53,"x_max":1004,"o":"m 453 -436 l 442 -357 q 549 -267 556 -347 l 454 -267 l 454 -78 l 679 -78 l 679 -232 q 622 -385 679 -337 q 453 -436 565 -432 m 582 -19 q 203 122 354 -19 q 53 483 53 264 l 53 486 q 202 846 53 700 q 576 992 351 992 q 971 850 807 992 l 813 660 q 578 751 703 751 q 401 674 472 751 q 329 485 329 596 l 329 482 q 403 288 329 364 q 593 213 478 213 q 749 253 688 213 l 749 371 l 557 371 l 557 568 l 1004 568 l 1004 131 q 582 -19 822 -19 z "},"ģ":{"ha":939,"x_min":43,"x_max":868,"o":"m 592 1179 l 603 1100 q 496 1010 489 1090 l 590 1010 l 590 821 l 365 821 l 365 975 q 422 1128 365 1081 q 592 1179 479 1175 m 440 -225 q 64 -139 232 -225 l 149 36 q 411 -35 276 -35 q 608 150 608 -35 l 608 179 q 376 67 511 67 q 138 163 233 67 q 43 415 43 258 l 43 418 q 138 672 43 575 q 368 768 233 768 q 604 663 504 768 l 604 751 l 868 751 l 868 181 q 771 -119 868 -22 q 440 -225 665 -225 m 456 269 q 565 311 522 269 q 608 415 608 353 l 608 418 q 565 522 608 481 q 456 563 522 563 q 345 521 389 563 q 301 417 301 479 l 301 414 q 344 310 301 351 q 456 269 388 269 z "},"Ħ":{"ha":1057,"x_min":3,"x_max":1054,"o":"m 3 718 l 3 864 l 86 864 l 86 972 l 356 972 l 356 864 l 701 864 l 701 972 l 971 972 l 971 864 l 1054 864 l 1054 718 l 971 718 l 971 0 l 701 0 l 701 369 l 356 369 l 356 0 l 86 0 l 86 718 l 3 718 m 356 608 l 701 608 l 701 721 l 356 721 l 356 608 z "},"ħ":{"ha":881,"x_min":-17,"x_max":815,"o":"m 71 0 l 71 825 l -17 825 l -17 950 l 71 950 l 71 1014 l 335 1014 l 335 950 l 543 950 l 543 825 l 335 825 l 335 649 q 560 768 428 768 q 747 694 679 768 q 815 492 815 619 l 815 0 l 551 0 l 551 407 q 523 500 551 467 q 446 533 494 533 q 365 500 396 533 q 335 407 335 467 l 335 0 l 71 0 z "},"Ī":{"ha":454,"x_min":-49,"x_max":504,"o":"m 92 0 l 92 972 l 363 972 l 363 0 l 92 0 m -49 1049 l -49 1211 l 504 1211 l 504 1049 l -49 1049 z "},"ī":{"ha":418,"x_min":-51,"x_max":469,"o":"m 76 0 l 76 751 l 340 751 l 340 0 l 76 0 m -51 826 l -51 985 l 469 985 l 469 826 l -51 826 z "},"Ĭ":{"ha":454,"x_min":-46,"x_max":501,"o":"m 92 0 l 92 972 l 363 972 l 363 0 l 92 0 m 416 1090 q 380 1063 416 1090 q 228 1036 344 1036 q 40 1090 111 1036 q -46 1246 -32 1143 l 114 1246 q 228 1183 140 1183 q 343 1246 315 1183 l 501 1246 q 416 1090 488 1143 z "},"ĭ":{"ha":418,"x_min":-65,"x_max":482,"o":"m 76 0 l 76 751 l 340 751 l 340 0 l 76 0 m 399 874 q 362 844 399 874 q 208 814 325 814 q 18 874 92 814 q -65 1044 -56 935 l 89 1044 q 208 964 117 964 q 328 1044 300 964 l 482 1044 q 399 874 472 935 z "},"Į":{"ha":454,"x_min":89,"x_max":382,"o":"m 92 0 l 92 972 l 363 972 l 363 0 l 313 0 q 282 -65 282 -35 q 382 -115 282 -119 l 382 -228 q 170 -212 251 -246 q 89 -112 89 -178 q 144 0 89 -56 l 92 0 z "},"į":{"ha":418,"x_min":67,"x_max":360,"o":"m 76 0 l 76 751 l 340 751 l 340 0 l 290 0 q 260 -65 260 -35 q 360 -115 260 -119 l 360 -228 q 148 -212 229 -246 q 67 -112 67 -178 q 122 0 67 -56 l 76 0 m 71 819 l 71 1014 l 346 1014 l 346 819 l 71 819 z "},"İ":{"ha":454,"x_min":92,"x_max":363,"o":"m 92 0 l 92 972 l 363 972 l 363 0 l 92 0 m 110 1039 l 110 1231 l 346 1231 l 346 1039 l 110 1039 z "},"ı":{"ha":417,"x_min":76,"x_max":340,"o":"m 76 0 l 76 751 l 340 751 l 340 0 l 76 0 z "},"Ķ":{"ha":1014,"x_min":86,"x_max":1022,"o":"m 396 -424 l 385 -344 q 492 -254 499 -335 l 397 -254 l 397 -65 l 622 -65 l 622 -219 q 565 -372 622 -325 q 396 -424 508 -419 m 86 0 l 86 972 l 356 972 l 356 578 l 690 972 l 1010 972 l 642 554 l 1022 0 l 699 0 l 454 361 l 356 251 l 356 0 l 86 0 z "},"ķ":{"ha":838,"x_min":71,"x_max":844,"o":"m 321 -426 l 310 -347 q 417 -257 424 -337 l 322 -257 l 322 -68 l 547 -68 l 547 -222 q 490 -375 547 -328 q 321 -426 433 -422 m 71 0 l 71 1014 l 335 1014 l 335 500 l 539 751 l 838 751 l 576 450 l 844 0 l 554 0 l 403 256 l 335 176 l 335 0 l 71 0 z "},"Ĺ":{"ha":857,"x_min":86,"x_max":826,"o":"m 144 1039 l 294 1264 l 546 1188 l 340 1039 l 144 1039 m 86 0 l 86 972 l 356 972 l 356 236 l 826 236 l 826 0 l 86 0 z "},"ĺ":{"ha":418,"x_min":76,"x_max":508,"o":"m 107 1067 l 257 1292 l 508 1215 l 303 1067 l 107 1067 m 76 0 l 76 1014 l 340 1014 l 340 0 l 76 0 z "},"Ļ":{"ha":857,"x_min":86,"x_max":826,"o":"m 343 -426 l 332 -347 q 439 -257 446 -337 l 344 -257 l 344 -68 l 569 -68 l 569 -222 q 513 -375 569 -328 q 343 -426 456 -422 m 86 0 l 86 972 l 356 972 l 356 236 l 826 236 l 826 0 l 86 0 z "},"ļ":{"ha":418,"x_min":76,"x_max":340,"o":"m 96 -426 l 85 -347 q 192 -257 199 -337 l 97 -257 l 97 -68 l 322 -68 l 322 -222 q 265 -375 322 -328 q 96 -426 208 -422 m 76 0 l 76 1014 l 340 1014 l 340 0 l 76 0 z "},"Ľ":{"ha":857,"x_min":86,"x_max":826,"o":"m 436 674 l 451 972 l 633 972 l 633 968 l 543 674 l 436 674 m 86 0 l 86 972 l 356 972 l 356 236 l 826 236 l 826 0 l 86 0 z "},"ľ":{"ha":418,"x_min":76,"x_max":601,"o":"m 404 715 l 419 1014 l 601 1014 l 601 1010 l 511 715 l 404 715 m 76 0 l 76 1014 l 340 1014 l 340 0 l 76 0 z "},"Ŀ":{"ha":857,"x_min":86,"x_max":826,"o":"m 550 454 l 550 669 l 771 669 l 771 454 l 550 454 m 86 0 l 86 972 l 356 972 l 356 236 l 826 236 l 826 0 l 86 0 z "},"ŀ":{"ha":582,"x_min":76,"x_max":593,"o":"m 407 419 l 407 632 l 593 632 l 593 419 l 407 419 m 76 0 l 76 1014 l 340 1014 l 340 0 l 76 0 z "},"Ł":{"ha":919,"x_min":43,"x_max":889,"o":"m 622 517 l 418 429 l 418 236 l 889 236 l 889 0 l 149 0 l 149 313 l 43 268 l 43 510 l 149 554 l 149 972 l 418 972 l 418 669 l 622 757 l 622 517 z "},"ł":{"ha":557,"x_min":33,"x_max":524,"o":"m 524 508 l 411 457 l 411 0 l 147 0 l 147 336 l 33 285 l 33 521 l 147 572 l 147 1014 l 411 1014 l 411 693 l 524 744 l 524 508 z "},"Ń":{"ha":1090,"x_min":86,"x_max":1004,"o":"m 442 1039 l 592 1264 l 843 1188 l 638 1039 l 442 1039 m 86 0 l 86 972 l 338 972 l 738 458 l 738 972 l 1004 972 l 1004 0 l 768 0 l 353 533 l 353 0 l 86 0 z "},"ń":{"ha":881,"x_min":71,"x_max":815,"o":"m 342 822 l 486 1078 l 731 999 l 525 822 l 342 822 m 71 0 l 71 751 l 335 751 l 335 646 q 560 768 429 768 q 747 694 679 768 q 815 492 815 619 l 815 0 l 551 0 l 551 407 q 523 500 551 467 q 446 533 494 533 q 365 500 396 533 q 335 407 335 467 l 335 0 l 71 0 z "},"Ņ":{"ha":1090,"x_min":86,"x_max":1004,"o":"m 432 -424 l 421 -344 q 528 -254 535 -335 l 433 -254 l 433 -65 l 658 -65 l 658 -219 q 601 -372 658 -325 q 432 -424 544 -419 m 86 0 l 86 972 l 338 972 l 738 458 l 738 972 l 1004 972 l 1004 0 l 768 0 l 353 533 l 353 0 l 86 0 z "},"ņ":{"ha":881,"x_min":71,"x_max":815,"o":"m 329 -426 l 318 -347 q 425 -257 432 -337 l 331 -257 l 331 -68 l 556 -68 l 556 -222 q 499 -375 556 -328 q 329 -426 442 -422 m 71 0 l 71 751 l 335 751 l 335 646 q 560 768 429 768 q 747 694 679 768 q 815 492 815 619 l 815 0 l 551 0 l 551 407 q 523 500 551 467 q 446 533 494 533 q 365 500 396 533 q 335 407 335 467 l 335 0 l 71 0 z "},"Ň":{"ha":1090,"x_min":86,"x_max":1004,"o":"m 833 1246 l 663 1039 l 428 1039 l 257 1246 l 436 1246 l 546 1172 l 656 1246 l 833 1246 m 86 0 l 86 972 l 338 972 l 738 458 l 738 972 l 1004 972 l 1004 0 l 768 0 l 353 533 l 353 0 l 86 0 z "},"ň":{"ha":881,"x_min":71,"x_max":815,"o":"m 726 1050 l 549 822 l 335 822 l 157 1050 l 326 1050 l 443 965 l 560 1050 l 726 1050 m 71 0 l 71 751 l 335 751 l 335 646 q 560 768 429 768 q 747 694 679 768 q 815 492 815 619 l 815 0 l 551 0 l 551 407 q 523 500 551 467 q 446 533 494 533 q 365 500 396 533 q 335 407 335 467 l 335 0 l 71 0 z "},"Ō":{"ha":1154,"x_min":53,"x_max":1100,"o":"m 300 1063 l 300 1225 l 853 1225 l 853 1063 l 300 1063 m 949 128 q 874 54 949 128 q 575 -19 799 -19 q 202 126 351 -19 q 53 483 53 272 l 53 486 q 203 844 53 697 q 578 992 354 992 q 951 846 801 992 q 1100 489 1100 700 l 1100 486 q 949 128 1100 275 m 399 301 q 434 262 399 301 q 578 224 469 224 q 756 299 686 224 q 825 483 825 375 l 825 486 q 754 672 825 594 q 575 749 683 749 q 398 673 467 749 q 329 489 329 597 l 329 486 q 399 301 329 378 z "},"ō":{"ha":911,"x_min":40,"x_max":871,"o":"m 196 832 l 196 990 l 717 990 l 717 832 l 196 832 m 454 -18 q 158 96 276 -18 q 40 372 40 210 l 40 375 q 159 653 40 538 q 457 768 278 768 q 753 654 635 768 q 871 378 871 540 l 871 375 q 752 97 871 213 q 454 -18 633 -18 m 457 206 q 570 254 526 206 q 614 372 614 303 l 614 375 q 568 494 614 444 q 454 544 522 544 q 341 496 385 544 q 297 378 297 447 l 297 375 q 343 256 297 306 q 457 206 389 206 z "},"Ŏ":{"ha":1154,"x_min":53,"x_max":1100,"o":"m 766 1103 q 730 1077 766 1103 q 578 1050 694 1050 q 390 1103 461 1050 q 304 1260 318 1157 l 464 1260 q 578 1197 490 1197 q 693 1260 665 1197 l 851 1260 q 766 1103 838 1157 m 949 128 q 874 54 949 128 q 575 -19 799 -19 q 202 126 351 -19 q 53 483 53 272 l 53 486 q 203 844 53 697 q 578 992 354 992 q 951 846 801 992 q 1100 489 1100 700 l 1100 486 q 949 128 1100 275 m 399 301 q 434 262 399 301 q 578 224 469 224 q 756 299 686 224 q 825 483 825 375 l 825 486 q 754 672 825 594 q 575 749 683 749 q 398 673 467 749 q 329 489 329 597 l 329 486 q 399 301 329 378 z "},"ŏ":{"ha":911,"x_min":40,"x_max":871,"o":"m 454 -18 q 158 96 276 -18 q 40 372 40 210 l 40 375 q 159 653 40 538 q 457 768 278 768 q 753 654 635 768 q 871 378 871 540 l 871 375 q 752 97 871 213 q 454 -18 633 -18 m 457 206 q 570 254 526 206 q 614 372 614 303 l 614 375 q 568 494 614 444 q 454 544 522 544 q 341 496 385 544 q 297 378 297 447 l 297 375 q 343 256 297 306 q 457 206 389 206 m 646 880 q 609 850 646 880 q 456 819 572 819 q 265 880 339 819 q 182 1050 192 940 l 336 1050 q 456 969 364 969 q 575 1050 547 969 l 729 1050 q 646 880 719 940 z "},"Ő":{"ha":1154,"x_min":53,"x_max":1100,"o":"m 949 128 q 874 54 949 128 q 575 -19 799 -19 q 202 126 351 -19 q 53 483 53 272 l 53 486 q 203 844 53 697 q 578 992 354 992 q 951 846 801 992 q 1100 489 1100 700 l 1100 486 q 949 128 1100 275 m 399 301 q 434 262 399 301 q 578 224 469 224 q 756 299 686 224 q 825 483 825 375 l 825 486 q 754 672 825 594 q 575 749 683 749 q 398 673 467 749 q 329 489 329 597 l 329 486 q 399 301 329 378 m 607 1053 l 693 1189 l 511 1053 l 333 1053 l 476 1278 l 703 1203 l 750 1278 l 983 1201 l 785 1053 l 607 1053 z "},"ő":{"ha":911,"x_min":40,"x_max":871,"o":"m 454 -18 q 158 96 276 -18 q 40 372 40 210 l 40 375 q 159 653 40 538 q 457 768 278 768 q 753 654 635 768 q 871 378 871 540 l 871 375 q 752 97 871 213 q 454 -18 633 -18 m 218 822 l 353 1078 l 579 1000 l 621 1078 l 853 999 l 653 822 l 485 822 l 572 988 l 386 822 l 218 822 m 457 206 q 570 254 526 206 q 614 372 614 303 l 614 375 q 568 494 614 444 q 454 544 522 544 q 341 496 385 544 q 297 378 297 447 l 297 375 q 343 256 297 306 q 457 206 389 206 z "},"Œ":{"ha":1497,"x_min":53,"x_max":1444,"o":"m 601 0 q 199 133 346 0 q 53 481 53 267 l 53 483 q 201 836 53 700 q 607 972 350 972 l 1438 972 l 1438 743 l 953 743 l 953 596 l 1389 596 l 1389 383 l 953 383 l 953 229 l 1444 229 l 1444 0 l 601 0 m 594 235 l 686 235 l 686 738 l 594 738 q 401 671 474 738 q 329 488 329 604 l 329 485 q 402 302 329 369 q 594 235 475 235 z "},"œ":{"ha":1407,"x_min":40,"x_max":1365,"o":"m 444 -18 q 158 97 275 -18 q 40 372 40 211 l 40 375 q 159 653 40 538 q 450 768 278 768 q 728 656 619 768 q 990 768 829 768 q 1269 651 1172 768 q 1365 357 1365 533 q 1363 303 1365 339 l 861 303 q 1022 179 893 179 q 1190 256 1113 179 l 1336 135 q 1014 -18 1214 -18 q 725 94 833 -18 q 444 -18 615 -18 m 857 438 l 1118 438 q 1076 537 1111 500 q 988 574 1042 574 q 902 537 936 574 q 857 438 868 500 m 453 206 q 565 254 522 206 q 607 372 607 303 l 607 375 q 563 494 607 444 q 450 544 518 544 q 340 496 382 544 q 297 378 297 447 l 297 375 q 342 256 297 306 q 453 206 386 206 z "},"Ŕ":{"ha":999,"x_min":86,"x_max":981,"o":"m 86 0 l 86 972 l 546 972 q 863 867 760 972 q 949 640 949 783 l 949 638 q 749 339 949 424 l 981 0 l 669 0 l 474 294 l 356 294 l 356 0 l 86 0 m 356 506 l 533 506 q 640 536 601 506 q 678 621 678 567 l 678 624 q 640 710 678 681 q 532 739 601 739 l 356 739 l 356 506 m 383 1039 l 533 1264 l 785 1188 l 579 1039 l 383 1039 z "},"ŕ":{"ha":594,"x_min":71,"x_max":606,"o":"m 217 817 l 361 1072 l 606 993 l 400 817 l 217 817 m 71 0 l 71 751 l 335 751 l 335 600 q 572 764 407 771 l 572 486 l 550 486 q 335 233 335 486 l 335 0 l 71 0 z "},"Ŗ":{"ha":999,"x_min":86,"x_max":981,"o":"m 86 0 l 86 972 l 546 972 q 863 867 760 972 q 949 640 949 783 l 949 638 q 749 339 949 424 l 981 0 l 669 0 l 474 294 l 356 294 l 356 0 l 86 0 m 356 506 l 533 506 q 640 536 601 506 q 678 621 678 567 l 678 624 q 640 710 678 681 q 532 739 601 739 l 356 739 l 356 506 m 378 -424 l 367 -344 q 474 -254 481 -335 l 379 -254 l 379 -65 l 604 -65 l 604 -219 q 547 -372 604 -325 q 378 -424 490 -419 z "},"ŗ":{"ha":594,"x_min":71,"x_max":572,"o":"m 97 -426 l 86 -347 q 193 -257 200 -337 l 99 -257 l 99 -68 l 324 -68 l 324 -222 q 267 -375 324 -328 q 97 -426 210 -422 m 71 0 l 71 751 l 335 751 l 335 600 q 572 764 407 771 l 572 486 l 550 486 q 335 233 335 486 l 335 0 l 71 0 z "},"Ř":{"ha":999,"x_min":86,"x_max":981,"o":"m 86 0 l 86 972 l 546 972 q 863 867 760 972 q 949 640 949 783 l 949 638 q 749 339 949 424 l 981 0 l 669 0 l 474 294 l 356 294 l 356 0 l 86 0 m 776 1246 l 606 1039 l 371 1039 l 200 1246 l 379 1246 l 489 1172 l 599 1246 l 776 1246 m 356 506 l 533 506 q 640 536 601 506 q 678 621 678 567 l 678 624 q 640 710 678 681 q 532 739 601 739 l 356 739 l 356 506 z "},"ř":{"ha":594,"x_min":33,"x_max":603,"o":"m 603 1044 l 425 817 l 211 817 l 33 1044 l 203 1044 l 319 960 l 436 1044 l 603 1044 m 71 0 l 71 751 l 335 751 l 335 600 q 572 764 407 771 l 572 486 l 550 486 q 335 233 335 486 l 335 0 l 71 0 z "},"Ś":{"ha":906,"x_min":13,"x_max":861,"o":"m 468 -17 q 13 144 193 -17 l 163 324 q 478 207 308 207 q 589 274 589 207 l 589 276 q 556 327 589 307 q 425 369 522 347 q 278 410 336 390 q 166 465 221 431 q 85 551 111 499 q 58 675 58 603 l 58 678 q 160 902 58 815 q 435 989 263 989 q 835 860 674 989 l 700 669 q 428 765 564 765 q 356 748 381 765 q 331 703 331 731 l 331 700 q 365 647 331 667 q 499 606 399 628 q 771 499 681 565 q 861 303 861 432 l 861 300 q 754 68 861 153 q 468 -17 647 -17 m 351 1053 l 501 1278 l 753 1201 l 547 1053 l 351 1053 z "},"ś":{"ha":714,"x_min":14,"x_max":676,"o":"m 261 822 l 406 1078 l 650 999 l 444 822 l 261 822 m 369 -17 q 14 94 168 -17 l 113 254 q 371 168 243 168 q 438 208 438 168 l 438 211 q 411 243 438 231 q 317 275 385 256 q 210 308 253 292 q 128 352 168 325 q 69 420 89 379 q 50 515 50 461 l 50 518 q 134 701 50 635 q 351 767 218 767 q 661 679 525 767 l 571 513 q 349 582 446 582 q 288 546 288 582 l 288 543 q 314 510 288 524 q 410 476 340 497 q 609 388 542 439 q 676 238 676 338 l 676 235 q 593 49 676 114 q 369 -17 510 -17 z "},"Ş":{"ha":906,"x_min":13,"x_max":861,"o":"m 453 -240 l 244 -151 l 350 -7 q 13 144 150 21 l 163 324 q 478 207 308 207 q 589 274 589 207 l 589 276 q 556 327 589 307 q 425 369 522 347 q 278 410 336 390 q 166 465 221 431 q 85 551 111 499 q 58 675 58 603 l 58 678 q 160 902 58 815 q 435 989 263 989 q 835 860 674 989 l 700 669 q 428 765 564 765 q 356 748 381 765 q 331 703 331 731 l 331 700 q 365 647 331 667 q 499 606 399 628 q 771 499 681 565 q 861 303 861 432 l 861 300 q 773 85 861 167 q 532 -12 685 3 l 453 -240 z "},"ş":{"ha":714,"x_min":14,"x_max":676,"o":"m 350 -240 l 142 -151 l 249 -6 q 14 94 119 18 l 113 254 q 371 168 243 168 q 438 208 438 168 l 438 211 q 411 243 438 231 q 317 275 385 256 q 210 308 253 292 q 128 352 168 325 q 69 420 89 379 q 50 515 50 461 l 50 518 q 134 701 50 635 q 351 767 218 767 q 661 679 525 767 l 571 513 q 349 582 446 582 q 288 546 288 582 l 288 543 q 314 510 288 524 q 410 476 340 497 q 609 388 542 439 q 676 238 676 338 l 676 235 q 610 63 676 126 q 429 -12 544 0 l 350 -240 z "},"Š":{"ha":906,"x_min":13,"x_max":861,"o":"m 468 -17 q 13 144 193 -17 l 163 324 q 478 207 308 207 q 589 274 589 207 l 589 276 q 556 327 589 307 q 425 369 522 347 q 278 410 336 390 q 166 465 221 431 q 85 551 111 499 q 58 675 58 603 l 58 678 q 160 902 58 815 q 435 989 263 989 q 835 860 674 989 l 700 669 q 428 765 564 765 q 356 748 381 765 q 331 703 331 731 l 331 700 q 365 647 331 667 q 499 606 399 628 q 771 499 681 565 q 861 303 861 432 l 861 300 q 754 68 861 153 q 468 -17 647 -17 m 744 1260 l 574 1053 l 339 1053 l 168 1260 l 347 1260 l 457 1186 l 567 1260 l 744 1260 z "},"š":{"ha":714,"x_min":14,"x_max":676,"o":"m 646 1050 l 468 822 l 254 822 l 76 1050 l 246 1050 l 363 965 l 479 1050 l 646 1050 m 369 -17 q 14 94 168 -17 l 113 254 q 371 168 243 168 q 438 208 438 168 l 438 211 q 411 243 438 231 q 317 275 385 256 q 210 308 253 292 q 128 352 168 325 q 69 420 89 379 q 50 515 50 461 l 50 518 q 134 701 50 635 q 351 767 218 767 q 661 679 525 767 l 571 513 q 349 582 446 582 q 288 546 288 582 l 288 543 q 314 510 288 524 q 410 476 340 497 q 609 388 542 439 q 676 238 676 338 l 676 235 q 593 49 676 114 q 369 -17 510 -17 z "},"Ţ":{"ha":917,"x_min":32,"x_max":885,"o":"m 346 -426 l 335 -347 q 442 -257 449 -337 l 347 -257 l 347 -68 l 572 -68 l 572 -222 q 515 -375 572 -328 q 346 -426 458 -422 m 324 0 l 324 736 l 32 736 l 32 972 l 885 972 l 885 736 l 593 736 l 593 0 l 324 0 z "},"ţ":{"ha":599,"x_min":28,"x_max":556,"o":"m 208 -432 l 197 -353 q 304 -262 311 -343 l 210 -262 l 210 -74 l 435 -74 l 435 -228 q 378 -381 435 -333 q 208 -432 321 -428 m 369 -15 q 117 233 117 -15 l 117 539 l 28 539 l 28 751 l 117 751 l 117 942 l 381 942 l 381 751 l 556 751 l 556 539 l 381 539 l 381 285 q 453 210 381 210 q 553 235 500 210 l 553 28 q 369 -15 476 -15 z "},"Ť":{"ha":917,"x_min":32,"x_max":885,"o":"m 747 1246 l 576 1039 l 342 1039 l 171 1246 l 350 1246 l 460 1172 l 569 1246 l 747 1246 m 324 0 l 324 736 l 32 736 l 32 972 l 885 972 l 885 736 l 593 736 l 593 0 l 324 0 z "},"ť":{"ha":599,"x_min":28,"x_max":646,"o":"m 449 813 l 464 1111 l 646 1111 l 646 1107 l 556 813 l 449 813 m 369 -15 q 117 233 117 -15 l 117 539 l 28 539 l 28 751 l 117 751 l 117 942 l 381 942 l 381 751 l 556 751 l 556 539 l 381 539 l 381 285 q 453 210 381 210 q 553 235 500 210 l 553 28 q 369 -15 476 -15 z "},"Ū":{"ha":1053,"x_min":74,"x_max":979,"o":"m 250 1049 l 250 1211 l 803 1211 l 803 1049 l 250 1049 m 524 -18 q 192 93 310 -18 q 74 426 74 204 l 74 972 l 347 972 l 347 432 q 395 277 347 329 q 526 225 443 225 q 658 275 610 225 q 706 425 706 325 l 706 972 l 979 972 l 979 433 q 859 94 979 206 q 524 -18 739 -18 z "},"ū":{"ha":881,"x_min":65,"x_max":810,"o":"m 321 -17 q 133 57 201 -17 q 65 260 65 131 l 65 751 l 329 751 l 329 344 q 358 251 329 285 q 436 218 388 218 q 515 251 485 218 q 546 344 546 285 l 546 751 l 810 751 l 810 0 l 546 0 l 546 103 q 321 -17 453 -17 m 176 826 l 176 985 l 697 985 l 697 826 l 176 826 z "},"Ŭ":{"ha":1053,"x_min":74,"x_max":979,"o":"m 715 1077 q 679 1050 715 1077 q 526 1024 643 1024 q 338 1077 410 1024 q 253 1233 267 1131 l 413 1233 q 526 1171 439 1171 q 642 1233 614 1171 l 800 1233 q 715 1077 786 1131 m 524 -18 q 192 93 310 -18 q 74 426 74 204 l 74 972 l 347 972 l 347 432 q 395 277 347 329 q 526 225 443 225 q 658 275 610 225 q 706 425 706 325 l 706 972 l 979 972 l 979 433 q 859 94 979 206 q 524 -18 739 -18 z "},"ŭ":{"ha":881,"x_min":65,"x_max":810,"o":"m 321 -17 q 133 57 201 -17 q 65 260 65 131 l 65 751 l 329 751 l 329 344 q 358 251 329 285 q 436 218 388 218 q 515 251 485 218 q 546 344 546 285 l 546 751 l 810 751 l 810 0 l 546 0 l 546 103 q 321 -17 453 -17 m 626 874 q 590 844 626 874 q 436 814 553 814 q 246 874 319 814 q 163 1044 172 935 l 317 1044 q 436 964 344 964 q 556 1044 528 964 l 710 1044 q 626 874 700 935 z "},"Ů":{"ha":1053,"x_min":74,"x_max":979,"o":"m 524 -18 q 192 93 310 -18 q 74 426 74 204 l 74 972 l 347 972 l 347 432 q 395 277 347 329 q 526 225 443 225 q 658 275 610 225 q 706 425 706 325 l 706 972 l 979 972 l 979 433 q 859 94 979 206 q 524 -18 739 -18 m 388 1060 q 359 1085 388 1060 q 331 1185 331 1110 q 388 1309 331 1260 q 526 1358 444 1358 q 665 1309 608 1358 q 722 1185 722 1260 q 665 1060 722 1110 q 526 1010 608 1010 q 388 1060 444 1010 m 454 1249 q 440 1236 454 1249 q 426 1185 426 1224 q 454 1120 426 1146 q 526 1094 482 1094 q 599 1120 571 1094 q 626 1185 626 1146 q 599 1249 626 1224 q 526 1275 571 1275 q 454 1249 482 1275 z "},"ů":{"ha":881,"x_min":65,"x_max":810,"o":"m 306 854 q 280 880 306 854 q 253 979 253 906 q 306 1104 253 1053 q 436 1156 360 1156 q 567 1104 514 1156 q 621 979 621 1053 q 567 854 621 906 q 436 803 514 803 q 306 854 360 803 m 369 1048 q 356 1034 369 1048 q 342 979 342 1019 q 369 911 342 939 q 436 883 397 883 q 503 911 475 883 q 532 979 532 939 q 504 1048 532 1019 q 436 1076 476 1076 q 369 1048 397 1076 m 321 -17 q 133 57 201 -17 q 65 260 65 131 l 65 751 l 329 751 l 329 344 q 358 251 329 285 q 436 218 388 218 q 515 251 485 218 q 546 344 546 285 l 546 751 l 810 751 l 810 0 l 546 0 l 546 103 q 321 -17 453 -17 z "},"Ű":{"ha":1053,"x_min":74,"x_max":979,"o":"m 524 -18 q 192 93 310 -18 q 74 426 74 204 l 74 972 l 347 972 l 347 432 q 395 277 347 329 q 526 225 443 225 q 658 275 610 225 q 706 425 706 325 l 706 972 l 979 972 l 979 433 q 859 94 979 206 q 524 -18 739 -18 m 549 1039 l 635 1175 l 453 1039 l 275 1039 l 418 1264 l 644 1189 l 692 1264 l 925 1188 l 726 1039 l 549 1039 z "},"ű":{"ha":881,"x_min":65,"x_max":831,"o":"m 321 -17 q 133 57 201 -17 q 65 260 65 131 l 65 751 l 329 751 l 329 344 q 358 251 329 285 q 436 218 388 218 q 515 251 485 218 q 546 344 546 285 l 546 751 l 810 751 l 810 0 l 546 0 l 546 103 q 321 -17 453 -17 m 196 817 l 331 1072 l 557 994 l 599 1072 l 831 993 l 631 817 l 463 817 l 550 982 l 364 817 l 196 817 z "},"Ų":{"ha":1053,"x_min":74,"x_max":979,"o":"m 672 -228 q 460 -212 542 -246 q 379 -112 379 -178 q 424 -11 379 -62 q 165 122 256 13 q 74 426 74 231 l 74 972 l 347 972 l 347 432 q 395 277 347 329 q 526 225 443 225 q 658 275 610 225 q 706 425 706 325 l 706 972 l 979 972 l 979 433 q 878 113 979 224 q 592 -15 776 1 q 572 -65 572 -40 q 672 -115 572 -119 l 672 -228 z "},"ų":{"ha":881,"x_min":65,"x_max":822,"o":"m 321 -17 q 133 57 201 -17 q 65 260 65 131 l 65 751 l 329 751 l 329 344 q 358 251 329 285 q 436 218 388 218 q 515 251 485 218 q 546 344 546 285 l 546 751 l 810 751 l 810 0 l 753 0 q 722 -65 722 -35 q 822 -115 722 -119 l 822 -228 q 610 -212 692 -246 q 529 -112 529 -178 q 585 0 529 -56 l 546 0 l 546 103 q 321 -17 453 -17 z "},"Ŵ":{"ha":1551,"x_min":21,"x_max":1531,"o":"m 346 -7 l 21 972 l 306 972 l 475 410 l 663 975 l 894 975 l 1082 410 l 1251 972 l 1531 972 l 1206 -7 l 971 -7 l 775 553 l 581 -7 l 346 -7 m 488 1039 l 658 1246 l 893 1246 l 1064 1039 l 883 1039 l 774 1113 l 664 1039 l 488 1039 z "},"ŵ":{"ha":1196,"x_min":17,"x_max":1179,"o":"m 313 817 l 490 1044 l 704 1044 l 882 817 l 713 817 l 596 901 l 479 817 l 313 817 m 246 -6 l 17 751 l 275 751 l 374 374 l 489 754 l 707 754 l 824 371 l 925 751 l 1179 751 l 947 -6 l 719 -6 l 597 385 l 472 -6 l 246 -6 z "},"Ŷ":{"ha":1004,"x_min":-3,"x_max":1007,"o":"m 367 0 l 367 364 l -3 972 l 304 972 l 504 618 l 706 972 l 1007 972 l 638 368 l 638 0 l 367 0 m 214 1039 l 385 1246 l 619 1246 l 790 1039 l 610 1039 l 500 1113 l 390 1039 l 214 1039 z "},"ŷ":{"ha":869,"x_min":15,"x_max":854,"o":"m 293 -226 q 51 -161 168 -226 l 133 24 q 249 -17 200 -17 q 310 14 288 -17 l 15 751 l 292 751 l 442 299 l 583 751 l 854 751 l 579 18 q 467 -171 529 -115 q 293 -226 404 -226 m 154 817 l 332 1044 l 546 1044 l 724 817 l 554 817 l 438 901 l 321 817 l 154 817 z "},"Ÿ":{"ha":1004,"x_min":-3,"x_max":1007,"o":"m 367 0 l 367 364 l -3 972 l 304 972 l 504 618 l 706 972 l 1007 972 l 638 368 l 638 0 l 367 0 m 540 1039 l 540 1231 l 769 1231 l 769 1039 l 540 1039 m 233 1039 l 233 1231 l 463 1231 l 463 1039 l 233 1039 z "},"Ź":{"ha":969,"x_min":56,"x_max":915,"o":"m 56 0 l 56 196 l 543 744 l 72 744 l 72 972 l 915 972 l 915 776 l 428 228 l 915 228 l 915 0 l 56 0 m 392 1039 l 542 1264 l 793 1188 l 588 1039 l 392 1039 z "},"ź":{"ha":782,"x_min":44,"x_max":742,"o":"m 300 817 l 444 1072 l 689 993 l 483 817 l 300 817 m 44 0 l 44 174 l 392 542 l 57 542 l 57 751 l 742 751 l 742 578 l 393 210 l 742 210 l 742 0 l 44 0 z "},"Ż":{"ha":969,"x_min":56,"x_max":915,"o":"m 378 1039 l 378 1231 l 614 1231 l 614 1039 l 378 1039 m 56 0 l 56 196 l 543 744 l 72 744 l 72 972 l 915 972 l 915 776 l 428 228 l 915 228 l 915 0 l 56 0 z "},"ż":{"ha":782,"x_min":44,"x_max":742,"o":"m 44 0 l 44 174 l 392 542 l 57 542 l 57 751 l 742 751 l 742 578 l 393 210 l 742 210 l 742 0 l 44 0 m 285 817 l 285 1014 l 517 1014 l 517 817 l 285 817 z "},"Ž":{"ha":969,"x_min":56,"x_max":915,"o":"m 785 1246 l 614 1039 l 379 1039 l 208 1246 l 388 1246 l 497 1172 l 607 1246 l 785 1246 m 56 0 l 56 196 l 543 744 l 72 744 l 72 972 l 915 972 l 915 776 l 428 228 l 915 228 l 915 0 l 56 0 z "},"ž":{"ha":782,"x_min":44,"x_max":742,"o":"m 685 1044 l 507 817 l 293 817 l 115 1044 l 285 1044 l 401 960 l 518 1044 l 685 1044 m 44 0 l 44 174 l 392 542 l 57 542 l 57 751 l 742 751 l 742 578 l 393 210 l 742 210 l 742 0 l 44 0 z "},"ƒ":{"ha":768,"x_min":35,"x_max":736,"o":"m 154 -14 q 35 0 96 -14 l 35 192 q 100 183 75 183 q 165 203 144 183 q 196 274 186 224 l 228 457 l 143 457 l 143 657 l 263 657 l 281 747 q 376 928 303 869 q 583 986 450 986 q 736 968 672 986 l 736 774 q 643 786 686 786 q 569 766 594 786 q 535 699 543 746 l 528 657 l 686 657 l 686 457 l 492 457 l 453 239 q 360 44 429 101 q 154 -14 290 -14 z "},"Ǻ":{"ha":1104,"x_min":8,"x_max":1096,"o":"m 357 1029 q 414 1153 357 1104 q 553 1203 471 1203 q 692 1153 635 1203 q 749 1029 749 1104 q 707 919 749 965 l 1096 0 l 807 0 l 736 174 l 361 174 l 292 0 l 8 0 l 397 921 q 357 1029 357 968 m 444 1238 l 606 1449 l 850 1369 l 631 1238 l 444 1238 m 440 383 l 658 383 l 550 660 l 440 383 m 481 1094 q 467 1081 481 1094 q 453 1029 453 1068 q 481 965 453 990 q 553 939 508 939 q 625 965 597 939 q 653 1029 653 990 q 625 1094 653 1068 q 553 1119 597 1119 q 481 1094 508 1119 z "},"ǻ":{"ha":832,"x_min":33,"x_max":768,"o":"m 319 1222 l 475 1444 l 713 1367 l 503 1222 l 319 1222 m 286 -17 q 104 44 175 -17 q 33 215 33 106 l 33 218 q 113 393 33 332 q 328 454 192 454 q 508 425 426 454 l 508 438 q 358 560 508 560 q 151 518 257 560 l 97 704 q 401 763 239 763 q 688 671 596 763 q 768 432 768 592 l 768 0 l 507 0 l 507 78 q 286 -17 422 -17 m 381 149 q 475 183 439 149 q 511 272 511 217 l 511 307 q 408 326 465 326 q 319 301 351 326 q 288 233 288 275 l 288 231 q 313 171 288 193 q 381 149 339 149 m 291 875 q 264 901 291 875 q 238 1000 238 926 q 291 1125 238 1074 q 421 1176 344 1176 q 552 1125 499 1176 q 606 1000 606 1074 q 552 875 606 926 q 421 824 499 824 q 291 875 344 824 m 354 1069 q 340 1055 354 1069 q 326 1000 326 1040 q 354 932 326 960 q 421 904 382 904 q 489 933 461 904 q 517 1000 517 961 q 489 1069 517 1040 q 421 1097 461 1097 q 354 1069 382 1097 z "},"Ǽ":{"ha":1476,"x_min":-7,"x_max":1424,"o":"m 753 1039 l 903 1264 l 1154 1188 l 949 1039 l 753 1039 m -7 0 l 507 972 l 1417 972 l 1417 743 l 932 743 l 932 596 l 1368 596 l 1368 383 l 932 383 l 932 229 l 1424 229 l 1424 0 l 669 0 l 669 174 l 356 174 l 265 0 l -7 0 m 464 383 l 669 383 l 669 751 l 653 751 l 464 383 z "},"ǽ":{"ha":1306,"x_min":33,"x_max":1264,"o":"m 547 817 l 692 1072 l 936 993 l 731 817 l 547 817 m 313 -17 q 113 44 192 -17 q 33 215 33 104 l 33 218 q 113 393 33 332 q 328 454 192 454 q 508 425 426 454 l 508 438 q 358 560 508 560 q 151 518 257 560 l 97 704 q 401 763 239 763 q 656 678 571 763 q 890 768 750 768 q 1167 651 1071 768 q 1264 357 1264 533 q 1261 303 1264 339 l 758 303 q 921 179 792 179 q 1088 256 1010 179 l 1233 135 q 908 -18 1113 -18 q 614 94 726 -18 q 313 -17 468 -17 m 756 438 l 1017 438 q 974 537 1010 500 q 885 574 939 574 q 799 537 833 574 q 756 438 765 500 m 385 151 q 536 213 460 151 q 510 307 515 261 q 408 326 464 326 q 319 301 351 326 q 288 233 288 275 l 288 231 q 315 173 288 194 q 385 151 342 151 z "},"Ǿ":{"ha":1154,"x_min":42,"x_max":1111,"o":"m 575 -19 q 300 54 424 -19 l 246 -7 l 42 -7 l 181 149 q 53 483 53 290 l 53 486 q 203 844 53 697 q 578 992 354 992 q 853 918 732 992 l 907 979 l 1111 979 l 974 822 q 1100 489 1100 682 l 1100 486 q 949 128 1100 275 q 575 -19 799 -19 m 358 351 l 688 728 q 575 754 638 754 q 395 676 465 754 q 325 489 325 599 l 325 486 q 358 351 325 411 m 578 218 q 759 296 689 218 q 829 483 829 374 l 829 486 q 796 621 829 561 l 465 244 q 578 218 518 218 m 474 1053 l 624 1278 l 875 1201 l 669 1053 l 474 1053 z "},"ǿ":{"ha":911,"x_min":19,"x_max":892,"o":"m 454 -18 q 243 35 340 -18 l 204 -7 l 19 -7 l 135 121 q 40 372 40 228 l 40 375 q 159 653 40 538 q 457 768 278 768 q 667 715 572 768 l 707 758 l 892 758 q 776 631 804 663 q 871 378 871 524 l 871 375 q 752 97 871 213 q 454 -18 633 -18 m 300 303 l 517 543 q 454 556 490 556 q 333 503 381 556 q 286 378 286 451 l 286 375 q 300 303 286 340 m 457 194 q 578 247 531 194 q 625 372 625 299 l 625 375 q 611 447 625 410 l 396 206 q 457 194 425 194 m 354 822 l 499 1078 l 743 999 l 538 822 l 354 822 z "},"Ș":{"ha":906,"x_min":13,"x_max":861,"o":"m 343 -436 l 332 -357 q 439 -267 446 -347 l 344 -267 l 344 -78 l 569 -78 l 569 -232 q 513 -385 569 -337 q 343 -436 456 -432 m 468 -17 q 13 144 193 -17 l 163 324 q 478 207 308 207 q 589 274 589 207 l 589 276 q 556 327 589 307 q 425 369 522 347 q 278 410 336 390 q 166 465 221 431 q 85 551 111 499 q 58 675 58 603 l 58 678 q 160 902 58 815 q 435 989 263 989 q 835 860 674 989 l 700 669 q 428 765 564 765 q 356 748 381 765 q 331 703 331 731 l 331 700 q 365 647 331 667 q 499 606 399 628 q 771 499 681 565 q 861 303 861 432 l 861 300 q 754 68 861 153 q 468 -17 647 -17 z "},"ș":{"ha":714,"x_min":14,"x_max":676,"o":"m 249 -432 l 238 -353 q 344 -262 351 -343 l 250 -262 l 250 -74 l 475 -74 l 475 -228 q 418 -381 475 -333 q 249 -432 361 -428 m 369 -17 q 14 94 168 -17 l 113 254 q 371 168 243 168 q 438 208 438 168 l 438 211 q 411 243 438 231 q 317 275 385 256 q 210 308 253 292 q 128 352 168 325 q 69 420 89 379 q 50 515 50 461 l 50 518 q 134 701 50 635 q 351 767 218 767 q 661 679 525 767 l 571 513 q 349 582 446 582 q 288 546 288 582 l 288 543 q 314 510 288 524 q 410 476 340 497 q 609 388 542 439 q 676 238 676 338 l 676 235 q 593 49 676 114 q 369 -17 510 -17 z "},"ə":{"ha":842,"x_min":42,"x_max":800,"o":"m 397 769 q 688 661 575 769 q 800 379 800 553 l 800 376 q 693 97 800 210 q 421 -17 586 -17 q 139 100 236 -17 q 42 394 42 217 q 43 449 42 431 l 546 449 q 383 572 514 572 q 217 496 294 572 l 71 617 q 397 769 192 769 m 550 314 l 289 314 q 331 215 296 251 q 419 178 365 178 q 505 215 471 178 q 550 314 539 251 z "},"ˆ":{"ha":694,"x_min":63,"x_max":632,"o":"m 63 817 l 240 1044 l 454 1044 l 632 817 l 463 817 l 346 901 l 229 817 l 63 817 z "},"ˇ":{"ha":694,"x_min":63,"x_max":632,"o":"m 632 1044 l 454 817 l 240 817 l 63 1044 l 232 1044 l 349 960 l 465 1044 l 632 1044 z "},"˘":{"ha":694,"x_min":74,"x_max":621,"o":"m 538 874 q 501 844 538 874 q 347 814 464 814 q 157 874 231 814 q 74 1044 83 935 l 228 1044 q 347 964 256 964 q 467 1044 439 964 l 621 1044 q 538 874 611 935 z "},"˙":{"ha":694,"x_min":232,"x_max":464,"o":"m 232 817 l 232 1014 l 464 1014 l 464 817 l 232 817 z "},"˚":{"ha":694,"x_min":164,"x_max":532,"o":"m 217 869 q 191 895 217 869 q 164 994 164 921 q 217 1119 164 1068 q 347 1171 271 1171 q 478 1119 425 1171 q 532 994 532 1068 q 478 869 532 921 q 347 818 425 818 q 217 869 271 818 m 281 1063 q 267 1049 281 1063 q 253 994 253 1035 q 281 926 253 954 q 347 899 308 899 q 415 927 386 899 q 443 994 443 956 q 415 1063 443 1035 q 347 1092 388 1092 q 281 1063 308 1092 z "},"˛":{"ha":694,"x_min":225,"x_max":518,"o":"m 518 -228 q 306 -212 388 -246 q 225 -112 225 -178 q 294 14 225 -51 l 463 14 q 418 -65 418 -31 q 518 -115 418 -119 l 518 -228 z "},"˜":{"ha":694,"x_min":54,"x_max":640,"o":"m 181 806 l 54 840 q 117 997 78 947 q 226 1047 157 1047 q 349 1020 272 1047 q 443 993 425 993 q 485 1008 471 993 q 514 1057 499 1022 l 640 1022 q 578 867 618 917 q 468 817 538 817 q 346 844 422 817 q 251 871 269 871 q 210 856 224 871 q 181 806 196 842 z "},"˝":{"ha":694,"x_min":39,"x_max":674,"o":"m 39 817 l 174 1072 l 400 994 l 442 1072 l 674 993 l 474 817 l 306 817 l 393 982 l 207 817 l 39 817 z "},"̦":{"ha":694,"x_min":222,"x_max":460,"o":"m 233 -426 l 222 -347 q 329 -257 336 -337 l 235 -257 l 235 -68 l 460 -68 l 460 -222 q 403 -375 460 -328 q 233 -426 346 -422 z "},"Ẁ":{"ha":1551,"x_min":21,"x_max":1531,"o":"m 729 1264 l 881 1039 l 683 1039 l 478 1188 l 729 1264 m 346 -7 l 21 972 l 306 972 l 475 410 l 663 975 l 894 975 l 1082 410 l 1251 972 l 1531 972 l 1206 -7 l 971 -7 l 775 553 l 581 -7 l 346 -7 z "},"ẁ":{"ha":1196,"x_min":17,"x_max":1179,"o":"m 246 -6 l 17 751 l 275 751 l 374 374 l 489 754 l 707 754 l 824 371 l 925 751 l 1179 751 l 947 -6 l 719 -6 l 597 385 l 472 -6 l 246 -6 m 514 817 l 310 993 l 554 1072 l 697 817 l 514 817 z "},"Ẃ":{"ha":1551,"x_min":21,"x_max":1531,"o":"m 672 1039 l 822 1264 l 1074 1188 l 868 1039 l 672 1039 m 346 -7 l 21 972 l 306 972 l 475 410 l 663 975 l 894 975 l 1082 410 l 1251 972 l 1531 972 l 1206 -7 l 971 -7 l 775 553 l 581 -7 l 346 -7 z "},"ẃ":{"ha":1196,"x_min":17,"x_max":1179,"o":"m 496 817 l 640 1072 l 885 993 l 679 817 l 496 817 m 246 -6 l 17 751 l 275 751 l 374 374 l 489 754 l 707 754 l 824 371 l 925 751 l 1179 751 l 947 -6 l 719 -6 l 597 385 l 472 -6 l 246 -6 z "},"Ẅ":{"ha":1551,"x_min":21,"x_max":1531,"o":"m 814 1039 l 814 1231 l 1043 1231 l 1043 1039 l 814 1039 m 507 1039 l 507 1231 l 736 1231 l 736 1039 l 507 1039 m 346 -7 l 21 972 l 306 972 l 475 410 l 663 975 l 894 975 l 1082 410 l 1251 972 l 1531 972 l 1206 -7 l 971 -7 l 775 553 l 581 -7 l 346 -7 z "},"ẅ":{"ha":1196,"x_min":17,"x_max":1179,"o":"m 631 817 l 631 1014 l 856 1014 l 856 817 l 631 817 m 340 817 l 340 1014 l 564 1014 l 564 817 l 340 817 m 246 -6 l 17 751 l 275 751 l 374 374 l 489 754 l 707 754 l 824 371 l 925 751 l 1179 751 l 947 -6 l 719 -6 l 597 385 l 472 -6 l 246 -6 z "},"Ỳ":{"ha":1004,"x_min":-3,"x_max":1007,"o":"m 367 0 l 367 364 l -3 972 l 304 972 l 504 618 l 706 972 l 1007 972 l 638 368 l 638 0 l 367 0 m 456 1264 l 607 1039 l 410 1039 l 204 1188 l 456 1264 z "},"ỳ":{"ha":869,"x_min":15,"x_max":854,"o":"m 293 -226 q 51 -161 168 -226 l 133 24 q 249 -17 200 -17 q 310 14 288 -17 l 15 751 l 292 751 l 442 299 l 583 751 l 854 751 l 579 18 q 467 -171 529 -115 q 293 -226 404 -226 m 356 817 l 151 993 l 396 1072 l 539 817 l 356 817 z "}," ":{"ha":694,"x_min":0,"x_max":0,"o":""}," ":{"ha":1389,"x_min":0,"x_max":0,"o":""}," ":{"ha":463,"x_min":0,"x_max":0,"o":""}," ":{"ha":347,"x_min":0,"x_max":0,"o":""}," ":{"ha":185,"x_min":0,"x_max":0,"o":""}," ":{"ha":104,"x_min":0,"x_max":0,"o":""},"–":{"ha":733,"x_min":56,"x_max":678,"o":"m 56 321 l 56 547 l 678 547 l 678 321 l 56 321 z "},"—":{"ha":1247,"x_min":56,"x_max":1192,"o":"m 56 321 l 56 547 l 1192 547 l 1192 321 l 56 321 z "},"‘":{"ha":394,"x_min":56,"x_max":363,"o":"m 56 476 l 56 697 q 128 910 56 844 q 340 979 201 975 l 363 878 q 256 836 292 869 q 224 747 221 803 l 329 747 l 329 476 l 56 476 z "},"’":{"ha":394,"x_min":32,"x_max":339,"o":"m 54 469 l 32 571 q 138 612 101 578 q 171 701 174 646 l 65 701 l 65 972 l 339 972 l 339 751 q 266 539 339 604 q 54 469 193 474 z "},"‚":{"ha":394,"x_min":28,"x_max":335,"o":"m 49 -232 l 28 -131 q 167 0 171 -114 l 60 0 l 60 271 l 335 271 l 335 50 q 261 -162 335 -97 q 49 -232 188 -228 z "},"“":{"ha":760,"x_min":56,"x_max":728,"o":"m 424 476 l 424 697 q 497 908 424 842 q 706 979 569 975 l 728 878 q 592 747 588 861 l 694 747 l 694 476 l 424 476 m 56 476 l 56 697 q 128 908 56 842 q 338 979 200 975 l 358 878 q 255 837 289 869 q 224 747 221 804 l 326 747 l 326 476 l 56 476 z "},"”":{"ha":760,"x_min":32,"x_max":704,"o":"m 424 469 l 401 571 q 538 701 542 586 l 433 701 l 433 972 l 704 972 l 704 751 q 632 540 704 606 q 424 469 560 474 m 54 469 l 32 571 q 168 701 172 586 l 65 701 l 65 972 l 336 972 l 336 751 q 264 540 336 606 q 54 469 192 474 z "},"„":{"ha":758,"x_min":28,"x_max":700,"o":"m 418 -232 l 397 -131 q 501 -90 467 -122 q 532 0 535 -57 l 429 0 l 429 271 l 700 271 l 700 50 q 628 -162 700 -96 q 418 -232 556 -228 m 49 -232 l 28 -131 q 131 -90 97 -122 q 163 0 165 -57 l 60 0 l 60 271 l 331 271 l 331 50 q 258 -162 331 -96 q 49 -232 186 -228 z "},"†":{"ha":569,"x_min":56,"x_max":514,"o":"m 215 310 l 229 685 l 56 667 l 56 811 l 228 793 l 207 972 l 363 972 l 342 793 l 514 811 l 514 667 l 340 685 l 354 310 l 215 310 z "},"‡":{"ha":597,"x_min":69,"x_max":528,"o":"m 221 0 l 242 179 l 69 161 l 69 306 l 244 288 l 226 486 l 244 685 l 69 667 l 69 811 l 242 793 l 221 972 l 376 972 l 356 793 l 528 811 l 528 667 l 353 685 l 371 486 l 353 288 l 528 306 l 528 161 l 356 179 l 376 0 l 221 0 z "},"•":{"ha":694,"x_min":113,"x_max":582,"o":"m 513 322 q 479 288 513 322 q 347 254 444 254 q 181 322 250 254 q 113 488 113 390 l 113 490 q 181 656 113 588 q 347 724 250 724 q 513 656 444 724 q 582 490 582 588 l 582 488 q 513 322 582 390 z "},"…":{"ha":1167,"x_min":60,"x_max":1107,"o":"m 838 0 l 838 267 l 1107 267 l 1107 0 l 838 0 m 449 0 l 449 267 l 718 267 l 718 0 l 449 0 m 60 0 l 60 267 l 329 267 l 329 0 l 60 0 z "},"‰":{"ha":1799,"x_min":49,"x_max":1750,"o":"m 479 538 q 444 500 479 538 q 299 463 408 463 q 119 538 189 463 q 49 722 49 613 l 49 725 q 118 910 49 835 q 300 986 188 986 q 481 911 411 986 q 550 726 550 836 l 550 724 q 479 538 550 614 m 1679 63 q 1644 24 1679 63 q 1499 -14 1608 -14 q 1319 62 1389 -14 q 1249 246 1249 138 l 1249 249 q 1318 434 1249 358 q 1500 510 1388 510 q 1681 435 1611 510 q 1750 250 1750 360 l 1750 247 q 1679 63 1750 139 m 1129 63 q 1094 24 1129 63 q 949 -14 1058 -14 q 769 62 839 -14 q 699 246 699 138 l 699 249 q 768 434 699 358 q 950 510 838 510 q 1131 435 1061 510 q 1200 250 1200 360 l 1200 247 q 1129 63 1200 139 m 242 646 q 253 631 242 646 q 300 615 265 615 q 358 646 335 615 q 381 722 381 676 l 381 725 q 357 802 381 771 q 299 833 333 833 q 240 803 263 833 q 218 726 218 772 l 218 724 q 242 646 218 676 m 1442 170 q 1453 155 1442 170 q 1500 139 1465 139 q 1558 169 1535 139 q 1581 246 1581 200 l 1581 249 q 1558 326 1581 296 q 1499 357 1535 357 q 1440 327 1461 357 q 1418 250 1418 297 l 1418 247 q 1442 170 1418 201 m 892 170 q 903 155 892 170 q 950 139 915 139 q 1008 169 985 139 q 1031 246 1031 200 l 1031 249 q 1008 326 1031 296 q 949 357 985 357 q 890 327 911 357 q 868 250 868 297 l 868 247 q 892 170 868 201 m 565 524 l 906 972 l 1093 972 l 675 438 l 343 0 l 156 0 l 565 524 z "},"‹":{"ha":496,"x_min":42,"x_max":454,"o":"m 264 42 l 42 339 l 42 406 l 264 703 l 454 610 l 274 372 l 454 136 l 264 42 z "},"›":{"ha":496,"x_min":42,"x_max":454,"o":"m 232 42 l 42 135 l 222 372 l 42 608 l 232 703 l 454 406 l 454 339 l 232 42 z "},"⁄":{"ha":625,"x_min":-75,"x_max":700,"o":"m -75 0 l 281 508 l 585 972 l 700 972 l 344 464 l 40 0 l -75 0 z "},"€":{"ha":947,"x_min":51,"x_max":924,"o":"m 585 -19 q 310 70 421 -19 q 164 310 200 160 l 51 310 l 51 454 l 146 454 q 144 483 144 464 l 144 486 q 146 524 144 511 l 51 524 l 51 668 l 168 668 q 316 901 207 811 q 586 992 425 992 q 919 835 797 992 l 749 675 q 588 761 681 761 q 436 664 482 761 l 653 664 l 653 524 l 406 524 q 404 489 404 513 l 404 486 q 406 454 404 465 l 653 454 l 653 314 l 433 314 q 593 211 482 211 q 757 303 682 211 l 924 146 q 585 -19 796 -19 z "},"℗":{"ha":1153,"x_min":74,"x_max":1079,"o":"m 932 130 q 858 55 932 130 q 575 -19 785 -19 q 219 128 365 -19 q 74 483 74 276 l 74 486 q 221 842 74 693 q 578 992 368 992 q 933 844 788 992 q 1079 489 1079 696 l 1079 486 q 932 130 1079 279 m 575 36 q 892 168 764 36 q 1021 486 1021 300 l 1021 489 q 893 806 1021 675 q 578 936 765 936 q 260 804 389 936 q 132 486 132 672 l 132 483 q 260 167 132 297 q 575 36 388 36 m 379 228 l 379 763 l 608 763 q 772 713 711 763 q 832 574 832 663 l 832 571 q 768 431 832 481 q 603 381 704 381 l 529 381 l 529 228 l 379 228 m 529 497 l 597 497 q 659 515 636 497 q 682 565 682 533 l 682 568 q 597 638 682 638 l 529 638 l 529 497 z "},"℠":{"ha":975,"x_min":22,"x_max":929,"o":"m 231 536 q 22 608 106 536 l 86 686 q 236 632 156 632 q 292 664 292 632 q 276 688 292 679 q 215 707 261 696 q 88 753 131 725 q 44 840 44 782 q 90 942 44 903 q 217 981 136 981 q 399 922 329 981 l 339 840 q 213 885 276 885 q 163 853 163 885 q 179 828 163 838 q 240 810 196 819 q 368 763 325 793 q 411 676 411 733 q 362 574 411 611 q 231 536 313 536 m 474 544 l 474 972 l 600 972 l 701 807 l 804 972 l 929 972 l 929 544 l 811 544 l 811 794 l 703 625 l 699 625 l 590 794 l 590 544 l 474 544 z "},"™":{"ha":965,"x_min":22,"x_max":919,"o":"m 464 544 l 464 972 l 590 972 l 692 807 l 794 972 l 919 972 l 919 544 l 801 544 l 801 794 l 693 625 l 689 625 l 581 794 l 581 544 l 464 544 m 150 544 l 150 868 l 22 868 l 22 972 l 397 972 l 397 868 l 269 868 l 269 544 l 150 544 z "},"−":{"ha":889,"x_min":79,"x_max":810,"o":"m 810 372 l 79 372 l 79 606 l 810 606 l 810 372 z "},"ﬀ":{"ha":1122,"x_min":31,"x_max":1111,"o":"m 679 0 l 679 540 l 590 540 l 590 743 l 679 743 l 679 764 q 743 958 679 894 q 939 1024 807 1024 q 1111 1003 1042 1024 l 1111 817 q 1013 832 1063 832 q 938 761 938 832 l 938 743 l 1110 743 l 1110 540 l 942 540 l 942 0 l 679 0 m 118 0 l 118 540 l 31 540 l 31 747 l 118 747 l 118 764 q 182 958 118 894 q 378 1024 247 1024 q 550 1003 481 1024 l 550 817 q 451 832 501 832 q 376 761 376 832 l 376 743 l 549 743 l 549 540 l 381 540 l 381 0 l 118 0 z "},"ﬁ":{"ha":978,"x_min":31,"x_max":907,"o":"m 632 819 l 632 1014 l 907 1014 l 907 819 l 632 819 m 118 747 l 118 764 q 182 958 118 894 q 378 1024 247 1024 q 550 1003 481 1024 l 550 817 q 451 832 501 832 q 376 761 376 832 l 376 743 l 549 743 l 549 540 l 381 540 l 381 0 l 118 0 l 118 540 l 31 540 l 31 747 l 118 747 m 638 0 l 638 751 l 901 751 l 901 0 l 638 0 z "},"ﬂ":{"ha":978,"x_min":31,"x_max":901,"o":"m 118 0 l 118 540 l 31 540 l 31 747 l 118 747 l 118 764 q 182 958 118 894 q 378 1024 247 1024 q 550 1003 481 1024 l 550 817 q 451 832 501 832 q 376 761 376 832 l 376 743 l 549 743 l 549 540 l 381 540 l 381 0 l 118 0 m 638 0 l 638 1014 l 901 1014 l 901 0 l 638 0 z "},"ﬃ":{"ha":1539,"x_min":31,"x_max":1468,"o":"m 1193 819 l 1193 1014 l 1468 1014 l 1468 819 l 1193 819 m 679 0 l 679 540 l 590 540 l 590 743 l 679 743 l 679 764 q 743 958 679 894 q 939 1024 807 1024 q 1111 1003 1042 1024 l 1111 817 q 1013 832 1063 832 q 938 761 938 832 l 938 743 l 1110 743 l 1110 540 l 942 540 l 942 0 l 679 0 m 118 0 l 118 540 l 31 540 l 31 747 l 118 747 l 118 764 q 182 958 118 894 q 378 1024 247 1024 q 550 1003 481 1024 l 550 817 q 451 832 501 832 q 376 761 376 832 l 376 743 l 549 743 l 549 540 l 381 540 l 381 0 l 118 0 m 1199 0 l 1199 751 l 1463 751 l 1463 0 l 1199 0 z "},"ﬄ":{"ha":1539,"x_min":31,"x_max":1463,"o":"m 679 0 l 679 540 l 590 540 l 590 743 l 679 743 l 679 764 q 743 958 679 894 q 939 1024 807 1024 q 1111 1003 1042 1024 l 1111 817 q 1013 832 1063 832 q 938 761 938 832 l 938 743 l 1110 743 l 1110 540 l 942 540 l 942 0 l 679 0 m 118 0 l 118 540 l 31 540 l 31 747 l 118 747 l 118 764 q 182 958 118 894 q 378 1024 247 1024 q 550 1003 481 1024 l 550 817 q 451 832 501 832 q 376 761 376 832 l 376 743 l 549 743 l 549 540 l 381 540 l 381 0 l 118 0 m 1199 0 l 1199 1014 l 1463 1014 l 1463 0 l 1199 0 z "}}}
